<mxfile host="Electron" modified="2024-03-17T17:33:19.816Z" agent="Mozilla/5.0 (Windows NT 10.0; Win64; x64) AppleWebKit/537.36 (KHTML, like Gecko) draw.io/23.1.5 Chrome/120.0.6099.109 Electron/28.1.0 Safari/537.36" etag="Ia8tprfHaEbxTpKBY5QF" version="23.1.5" type="device">
  <diagram id="C5RBs43oDa-KdzZeNtuy" name="Page-1">
    <mxGraphModel dx="10181" dy="5618" grid="1" gridSize="10" guides="1" tooltips="1" connect="1" arrows="1" fold="1" page="1" pageScale="1" pageWidth="827" pageHeight="1169" math="0" shadow="0">
      <root>
        <mxCell id="WIyWlLk6GJQsqaUBKTNV-0" />
        <mxCell id="WIyWlLk6GJQsqaUBKTNV-1" parent="WIyWlLk6GJQsqaUBKTNV-0" />
        <mxCell id="WIyWlLk6GJQsqaUBKTNV-2" value="" style="rounded=0;html=1;jettySize=auto;orthogonalLoop=1;fontSize=11;endArrow=block;endFill=0;endSize=8;strokeWidth=1;shadow=0;labelBackgroundColor=none;edgeStyle=orthogonalEdgeStyle;" parent="WIyWlLk6GJQsqaUBKTNV-1" source="WIyWlLk6GJQsqaUBKTNV-3" target="WIyWlLk6GJQsqaUBKTNV-6" edge="1">
          <mxGeometry relative="1" as="geometry" />
        </mxCell>
        <mxCell id="WIyWlLk6GJQsqaUBKTNV-3" value="Lamp doesn&#39;t work" style="rounded=1;whiteSpace=wrap;html=1;fontSize=12;glass=0;strokeWidth=1;shadow=0;" parent="WIyWlLk6GJQsqaUBKTNV-1" vertex="1">
          <mxGeometry x="190" y="-390" width="120" height="40" as="geometry" />
        </mxCell>
        <mxCell id="WIyWlLk6GJQsqaUBKTNV-4" value="Yes" style="rounded=0;html=1;jettySize=auto;orthogonalLoop=1;fontSize=11;endArrow=block;endFill=0;endSize=8;strokeWidth=1;shadow=0;labelBackgroundColor=none;edgeStyle=orthogonalEdgeStyle;" parent="WIyWlLk6GJQsqaUBKTNV-1" source="WIyWlLk6GJQsqaUBKTNV-6" target="WIyWlLk6GJQsqaUBKTNV-10" edge="1">
          <mxGeometry y="20" relative="1" as="geometry">
            <mxPoint as="offset" />
          </mxGeometry>
        </mxCell>
        <mxCell id="WIyWlLk6GJQsqaUBKTNV-5" value="No" style="edgeStyle=orthogonalEdgeStyle;rounded=0;html=1;jettySize=auto;orthogonalLoop=1;fontSize=11;endArrow=block;endFill=0;endSize=8;strokeWidth=1;shadow=0;labelBackgroundColor=none;" parent="WIyWlLk6GJQsqaUBKTNV-1" source="WIyWlLk6GJQsqaUBKTNV-6" target="WIyWlLk6GJQsqaUBKTNV-7" edge="1">
          <mxGeometry y="10" relative="1" as="geometry">
            <mxPoint as="offset" />
          </mxGeometry>
        </mxCell>
        <mxCell id="WIyWlLk6GJQsqaUBKTNV-6" value="Lamp&lt;br&gt;plugged in?" style="rhombus;whiteSpace=wrap;html=1;shadow=0;fontFamily=Helvetica;fontSize=12;align=center;strokeWidth=1;spacing=6;spacingTop=-4;" parent="WIyWlLk6GJQsqaUBKTNV-1" vertex="1">
          <mxGeometry x="200" y="-300" width="100" height="80" as="geometry" />
        </mxCell>
        <mxCell id="WIyWlLk6GJQsqaUBKTNV-7" value="Plug in lamp" style="rounded=1;whiteSpace=wrap;html=1;fontSize=12;glass=0;strokeWidth=1;shadow=0;" parent="WIyWlLk6GJQsqaUBKTNV-1" vertex="1">
          <mxGeometry x="350" y="-280" width="120" height="40" as="geometry" />
        </mxCell>
        <mxCell id="WIyWlLk6GJQsqaUBKTNV-8" value="No" style="rounded=0;html=1;jettySize=auto;orthogonalLoop=1;fontSize=11;endArrow=block;endFill=0;endSize=8;strokeWidth=1;shadow=0;labelBackgroundColor=none;edgeStyle=orthogonalEdgeStyle;" parent="WIyWlLk6GJQsqaUBKTNV-1" source="WIyWlLk6GJQsqaUBKTNV-10" target="WIyWlLk6GJQsqaUBKTNV-11" edge="1">
          <mxGeometry x="0.3333" y="20" relative="1" as="geometry">
            <mxPoint as="offset" />
          </mxGeometry>
        </mxCell>
        <mxCell id="WIyWlLk6GJQsqaUBKTNV-9" value="Yes" style="edgeStyle=orthogonalEdgeStyle;rounded=0;html=1;jettySize=auto;orthogonalLoop=1;fontSize=11;endArrow=block;endFill=0;endSize=8;strokeWidth=1;shadow=0;labelBackgroundColor=none;" parent="WIyWlLk6GJQsqaUBKTNV-1" source="WIyWlLk6GJQsqaUBKTNV-10" target="WIyWlLk6GJQsqaUBKTNV-12" edge="1">
          <mxGeometry y="10" relative="1" as="geometry">
            <mxPoint as="offset" />
          </mxGeometry>
        </mxCell>
        <mxCell id="WIyWlLk6GJQsqaUBKTNV-10" value="Bulb&lt;br&gt;burned out?" style="rhombus;whiteSpace=wrap;html=1;shadow=0;fontFamily=Helvetica;fontSize=12;align=center;strokeWidth=1;spacing=6;spacingTop=-4;" parent="WIyWlLk6GJQsqaUBKTNV-1" vertex="1">
          <mxGeometry x="200" y="-180" width="100" height="80" as="geometry" />
        </mxCell>
        <mxCell id="WIyWlLk6GJQsqaUBKTNV-11" value="Repair Lamp" style="rounded=1;whiteSpace=wrap;html=1;fontSize=12;glass=0;strokeWidth=1;shadow=0;" parent="WIyWlLk6GJQsqaUBKTNV-1" vertex="1">
          <mxGeometry x="190" y="-40" width="120" height="40" as="geometry" />
        </mxCell>
        <mxCell id="WIyWlLk6GJQsqaUBKTNV-12" value="Replace Bulb" style="rounded=1;whiteSpace=wrap;html=1;fontSize=12;glass=0;strokeWidth=1;shadow=0;" parent="WIyWlLk6GJQsqaUBKTNV-1" vertex="1">
          <mxGeometry x="350" y="-160" width="120" height="40" as="geometry" />
        </mxCell>
        <mxCell id="Rz6tWYdozI2A_UNbcyXa-0" value="" style="fillColor=none;strokeColor=none;pointerEvents=0;fontStyle=0;html=1;whiteSpace=wrap;container=1;collapsible=0;childLayout=stackLayout;resizeParent=1;dropTarget=0;fontSize=13;spacing=0;strokeOpacity=100;rounded=1;absoluteArcSize=1;arcSize=9;strokeWidth=NaN;" parent="WIyWlLk6GJQsqaUBKTNV-1" vertex="1">
          <mxGeometry x="2140" y="-2050" width="720" height="1109.375" as="geometry" />
        </mxCell>
        <mxCell id="Rz6tWYdozI2A_UNbcyXa-1" value="Atributos" style="swimlane;html=1;whiteSpace=wrap;connectable=0;fontStyle=0;startSize=30;dropTarget=0;rounded=0;spacing=0;strokeOpacity=100;fillColor=#unset;strokeWidth=NaN;container=1;pointerEvents=0;collapsible=0;recursiveResize=0;fontSize=16.7;" parent="Rz6tWYdozI2A_UNbcyXa-0" vertex="1">
          <mxGeometry width="240" height="1109.375" as="geometry" />
        </mxCell>
        <mxCell id="Rz6tWYdozI2A_UNbcyXa-2" value="Constructores" style="swimlane;html=1;whiteSpace=wrap;connectable=0;fontStyle=0;startSize=30;dropTarget=0;rounded=0;spacing=0;strokeOpacity=100;fillColor=#unset;strokeWidth=NaN;container=1;pointerEvents=0;collapsible=0;recursiveResize=0;fontSize=16.7;" parent="Rz6tWYdozI2A_UNbcyXa-0" vertex="1">
          <mxGeometry x="240" width="240" height="1109.375" as="geometry" />
        </mxCell>
        <mxCell id="Rz6tWYdozI2A_UNbcyXa-3" value="Métodos" style="swimlane;html=1;whiteSpace=wrap;connectable=0;fontStyle=0;startSize=30;dropTarget=0;rounded=0;spacing=0;strokeOpacity=100;fillColor=#unset;strokeWidth=NaN;container=1;pointerEvents=0;collapsible=0;recursiveResize=0;fontSize=16.7;" parent="Rz6tWYdozI2A_UNbcyXa-0" vertex="1">
          <mxGeometry x="480" width="240" height="1109.375" as="geometry" />
        </mxCell>
        <mxCell id="Rz6tWYdozI2A_UNbcyXa-4" value="Parking" style="html=1;overflow=block;blockSpacing=1;whiteSpace=wrap;fontSize=16.7;fontColor=#ffffff;spacing=9;strokeOpacity=100;fillOpacity=100;rounded=1;absoluteArcSize=1;arcSize=9;fillColor=#000000;strokeWidth=NaN;lucidId=Qqffs0oXA8Jd;" parent="WIyWlLk6GJQsqaUBKTNV-1" vertex="1">
          <mxGeometry x="-740" y="-1659" width="120" height="120" as="geometry" />
        </mxCell>
        <mxCell id="Rz6tWYdozI2A_UNbcyXa-5" value="Parqueo" style="html=1;overflow=block;blockSpacing=1;whiteSpace=wrap;fontSize=16.7;fontColor=#ffffff;spacing=3.8;strokeOpacity=100;fillOpacity=100;rounded=1;absoluteArcSize=1;arcSize=9;fillColor=#3a414a;strokeWidth=2.3;lucidId=~qffXnp1wD34;" parent="WIyWlLk6GJQsqaUBKTNV-1" vertex="1">
          <mxGeometry x="-1100" y="-1419" width="120" height="120" as="geometry" />
        </mxCell>
        <mxCell id="Rz6tWYdozI2A_UNbcyXa-6" value="Precio en Colones&#xa;Vehiculos: 1000/hora&#xa;Motos/Bicis: 800/hora&#xa;&amp;gt;MediaHora = cobrarHoraCompleta&#xa;&amp;lt;=MediaHora = mitadDelPrecio&#xa;Ejemplos:&#xa;Vehículo 1,5 horas = 1500&#xa;Vehículo 1,7 horas = 2000 == 2 horas&#xa;Vehículo 1,3 horas = 1500&#xa;SameForBikes" style="html=1;overflow=block;blockSpacing=1;whiteSpace=wrap;fontSize=15;fontColor=#ffffff;spacing=3.8;strokeOpacity=100;fillOpacity=100;rounded=1;absoluteArcSize=1;arcSize=9;fillColor=#82755b;strokeWidth=2.3;lucidId=~qffVHiHufif;" parent="WIyWlLk6GJQsqaUBKTNV-1" vertex="1">
          <mxGeometry x="-860" y="-1179" width="240" height="225" as="geometry" />
        </mxCell>
        <mxCell id="Rz6tWYdozI2A_UNbcyXa-7" value="25 campos para carros livianos y 10 campos para motocicletas y bicicletas" style="html=1;overflow=block;blockSpacing=1;whiteSpace=wrap;fontSize=15;fontColor=#ffffff;fontStyle=1;spacing=3.8;strokeOpacity=100;fillOpacity=100;rounded=1;absoluteArcSize=1;arcSize=9;fillColor=#82755b;strokeWidth=2.3;lucidId=~qffvQNnT4OK;" parent="WIyWlLk6GJQsqaUBKTNV-1" vertex="1">
          <mxGeometry x="-1220" y="-1104" width="120" height="120" as="geometry" />
        </mxCell>
        <mxCell id="Rz6tWYdozI2A_UNbcyXa-8" value="" style="html=1;jettySize=18;whiteSpace=wrap;fontSize=13;strokeOpacity=100;strokeWidth=1.5;rounded=1;arcSize=12;edgeStyle=orthogonalEdgeStyle;startArrow=none;endArrow=block;endFill=1;exitX=0.5;exitY=1.003;exitPerimeter=0;entryX=0.5;entryY=-0.009;entryPerimeter=0;lucidId=~qffE824bJip;" parent="WIyWlLk6GJQsqaUBKTNV-1" source="Rz6tWYdozI2A_UNbcyXa-4" target="Rz6tWYdozI2A_UNbcyXa-5" edge="1">
          <mxGeometry width="100" height="100" relative="1" as="geometry">
            <Array as="points" />
          </mxGeometry>
        </mxCell>
        <mxCell id="Rz6tWYdozI2A_UNbcyXa-9" value="" style="html=1;jettySize=18;whiteSpace=wrap;fontSize=13;strokeOpacity=100;strokeWidth=1.5;rounded=1;arcSize=12;edgeStyle=orthogonalEdgeStyle;startArrow=none;endArrow=block;endFill=1;exitX=0.5;exitY=1.009;exitPerimeter=0;entryX=0.5;entryY=-0.009;entryPerimeter=0;lucidId=~qffon1P7mNK;" parent="WIyWlLk6GJQsqaUBKTNV-1" source="Rz6tWYdozI2A_UNbcyXa-5" target="Rz6tWYdozI2A_UNbcyXa-7" edge="1">
          <mxGeometry width="100" height="100" relative="1" as="geometry">
            <Array as="points" />
          </mxGeometry>
        </mxCell>
        <mxCell id="Rz6tWYdozI2A_UNbcyXa-10" value="" style="html=1;jettySize=18;whiteSpace=wrap;fontSize=13;strokeOpacity=100;strokeWidth=1.5;rounded=1;arcSize=12;edgeStyle=orthogonalEdgeStyle;startArrow=none;endArrow=block;endFill=1;exitX=0.5;exitY=1.009;exitPerimeter=0;entryX=0.479;entryY=-0.005;entryPerimeter=0;lucidId=~qffaT0WT8ke;" parent="WIyWlLk6GJQsqaUBKTNV-1" source="Rz6tWYdozI2A_UNbcyXa-5" target="Rz6tWYdozI2A_UNbcyXa-6" edge="1">
          <mxGeometry width="100" height="100" relative="1" as="geometry">
            <Array as="points" />
          </mxGeometry>
        </mxCell>
        <mxCell id="Rz6tWYdozI2A_UNbcyXa-11" value="" style="html=1;jettySize=18;whiteSpace=wrap;fontSize=13;strokeOpacity=100;strokeWidth=1.5;rounded=1;arcSize=12;edgeStyle=orthogonalEdgeStyle;startArrow=none;endArrow=block;endFill=1;exitX=0.5;exitY=1.009;exitPerimeter=0;entryX=0.5;entryY=-0.005;entryPerimeter=0;lucidId=~qffATqVjWJR;" parent="WIyWlLk6GJQsqaUBKTNV-1" source="Rz6tWYdozI2A_UNbcyXa-7" target="Rz6tWYdozI2A_UNbcyXa-12" edge="1">
          <mxGeometry width="100" height="100" relative="1" as="geometry">
            <Array as="points" />
          </mxGeometry>
        </mxCell>
        <mxCell id="Rz6tWYdozI2A_UNbcyXa-12" value="Cuando sea un vehículo grande, &#xa;debe preguntarse cuántos espacios se le asignarán.&#xa;&#xa;Validar si hay suficientes espacios en la misma línea y conjuntos para asignarle, &#xa;&#xa;en caso contrario no podrá ingresar el vehículo." style="html=1;overflow=block;blockSpacing=1;whiteSpace=wrap;fontSize=16;fontColor=#ffffff;spacing=3.8;strokeOpacity=100;fillOpacity=100;rounded=1;absoluteArcSize=1;arcSize=9;fillColor=#82755b;strokeWidth=2.3;lucidId=~qffxSJFVqzh;" parent="WIyWlLk6GJQsqaUBKTNV-1" vertex="1">
          <mxGeometry x="-1460" y="-924" width="240" height="240" as="geometry" />
        </mxCell>
        <mxCell id="Rz6tWYdozI2A_UNbcyXa-13" value="Todos los vehículos tendrán una matrícula o número de placa, &#xa;excepto las bicicletas, a estas se les colocará una descripción de las características en su lugar." style="html=1;overflow=block;blockSpacing=1;whiteSpace=wrap;fontSize=16;fontColor=#ffffff;spacing=3.8;strokeOpacity=100;fillOpacity=100;rounded=1;absoluteArcSize=1;arcSize=9;fillColor=#82755b;strokeWidth=2.3;lucidId=~qfflI3yxo8T;" parent="WIyWlLk6GJQsqaUBKTNV-1" vertex="1">
          <mxGeometry x="-1100" y="-924" width="240" height="240" as="geometry" />
        </mxCell>
        <mxCell id="Rz6tWYdozI2A_UNbcyXa-14" value="" style="html=1;jettySize=18;whiteSpace=wrap;fontSize=13;strokeOpacity=100;strokeWidth=1.5;rounded=1;arcSize=12;edgeStyle=orthogonalEdgeStyle;startArrow=none;endArrow=block;endFill=1;exitX=0.5;exitY=1.009;exitPerimeter=0;entryX=0.5;entryY=-0.005;entryPerimeter=0;lucidId=~qffc2YGUmTT;" parent="WIyWlLk6GJQsqaUBKTNV-1" source="Rz6tWYdozI2A_UNbcyXa-7" target="Rz6tWYdozI2A_UNbcyXa-13" edge="1">
          <mxGeometry width="100" height="100" relative="1" as="geometry">
            <Array as="points" />
          </mxGeometry>
        </mxCell>
        <mxCell id="Rz6tWYdozI2A_UNbcyXa-15" value="Menu" style="html=1;overflow=block;blockSpacing=1;whiteSpace=wrap;fontSize=40;fontColor=#ffffff;spacing=3.8;strokeOpacity=100;fillOpacity=100;rounded=1;absoluteArcSize=1;arcSize=9;fillColor=#000000;strokeWidth=2.3;lucidId=MuffIuVUoRTC;" parent="WIyWlLk6GJQsqaUBKTNV-1" vertex="1">
          <mxGeometry x="295" y="-1584" width="120" height="120" as="geometry" />
        </mxCell>
        <mxCell id="Rz6tWYdozI2A_UNbcyXa-16" value="Opciones:&#xa;1.Ingresar Vehículo &#xa;2. Consultar Vehículo &#xa;3. Salida de Vehículo &#xa;4. Consultar parqueo &#xa;5. Consultar histórico de Vehículo &#xa;6. Cierre del día&#xa;7. Salir" style="html=1;overflow=block;blockSpacing=1;whiteSpace=wrap;fontSize=15;fontColor=#ffffff;spacing=3.8;strokeOpacity=100;fillOpacity=100;rounded=1;absoluteArcSize=1;arcSize=9;fillColor=#00290a;strokeWidth=2.3;lucidId=Muff-PO3aqx.;" parent="WIyWlLk6GJQsqaUBKTNV-1" vertex="1">
          <mxGeometry x="730" y="-1614" width="255" height="180" as="geometry" />
        </mxCell>
        <mxCell id="Rz6tWYdozI2A_UNbcyXa-17" value="" style="html=1;jettySize=18;whiteSpace=wrap;fontSize=13;strokeOpacity=100;strokeWidth=1.5;rounded=1;arcSize=12;edgeStyle=orthogonalEdgeStyle;startArrow=none;endArrow=block;endFill=1;exitX=1.009;exitY=0.5;exitPerimeter=0;entryX=-0.004;entryY=0.5;entryPerimeter=0;lucidId=MuffGXQJBnxe;" parent="WIyWlLk6GJQsqaUBKTNV-1" source="Rz6tWYdozI2A_UNbcyXa-15" target="Rz6tWYdozI2A_UNbcyXa-16" edge="1">
          <mxGeometry width="100" height="100" relative="1" as="geometry">
            <Array as="points" />
          </mxGeometry>
        </mxCell>
        <mxCell id="Rz6tWYdozI2A_UNbcyXa-18" value="" style="html=1;jettySize=18;whiteSpace=wrap;fontSize=13;strokeOpacity=100;strokeWidth=1.5;rounded=1;arcSize=12;edgeStyle=orthogonalEdgeStyle;startArrow=none;endArrow=block;endFill=1;exitX=0.5;exitY=1.006;exitPerimeter=0;entryX=0.5;entryY=-0.003;entryPerimeter=0;lucidId=MuffhvEZFrs3;" parent="WIyWlLk6GJQsqaUBKTNV-1" source="Rz6tWYdozI2A_UNbcyXa-16" target="Rz6tWYdozI2A_UNbcyXa-43" edge="1">
          <mxGeometry width="100" height="100" relative="1" as="geometry">
            <Array as="points" />
          </mxGeometry>
        </mxCell>
        <mxCell id="Rz6tWYdozI2A_UNbcyXa-19" value="" style="html=1;jettySize=18;whiteSpace=wrap;fontSize=13;strokeOpacity=100;strokeWidth=1.5;rounded=1;arcSize=12;edgeStyle=orthogonalEdgeStyle;startArrow=none;endArrow=block;endFill=1;exitX=0.5;exitY=1.003;exitPerimeter=0;entryX=-0.009;entryY=0.5;entryPerimeter=0;lucidId=Muff_yXMzOYm;" parent="WIyWlLk6GJQsqaUBKTNV-1" source="Rz6tWYdozI2A_UNbcyXa-4" target="Rz6tWYdozI2A_UNbcyXa-15" edge="1">
          <mxGeometry width="100" height="100" relative="1" as="geometry">
            <Array as="points" />
          </mxGeometry>
        </mxCell>
        <mxCell id="Rz6tWYdozI2A_UNbcyXa-20" value="" style="html=1;jettySize=18;whiteSpace=wrap;fontSize=13;strokeOpacity=100;strokeWidth=1.5;rounded=1;arcSize=12;edgeStyle=orthogonalEdgeStyle;startArrow=none;endArrow=block;endFill=1;exitX=0.5;exitY=1.006;exitPerimeter=0;entryX=0.5;entryY=-0.003;entryPerimeter=0;lucidId=Muff0r9n4Ul_;" parent="WIyWlLk6GJQsqaUBKTNV-1" source="Rz6tWYdozI2A_UNbcyXa-16" target="Rz6tWYdozI2A_UNbcyXa-55" edge="1">
          <mxGeometry width="100" height="100" relative="1" as="geometry">
            <Array as="points" />
          </mxGeometry>
        </mxCell>
        <mxCell id="Rz6tWYdozI2A_UNbcyXa-21" value="" style="html=1;jettySize=18;whiteSpace=wrap;fontSize=13;strokeOpacity=100;strokeWidth=1.5;rounded=1;arcSize=12;edgeStyle=orthogonalEdgeStyle;startArrow=none;endArrow=block;endFill=1;exitX=0.5;exitY=1.006;exitPerimeter=0;entryX=0.5;entryY=-0.003;entryPerimeter=0;lucidId=MuffG71QY8tL;" parent="WIyWlLk6GJQsqaUBKTNV-1" source="Rz6tWYdozI2A_UNbcyXa-16" target="Rz6tWYdozI2A_UNbcyXa-67" edge="1">
          <mxGeometry width="100" height="100" relative="1" as="geometry">
            <Array as="points" />
          </mxGeometry>
        </mxCell>
        <mxCell id="Rz6tWYdozI2A_UNbcyXa-22" value="" style="html=1;jettySize=18;whiteSpace=wrap;fontSize=13;strokeOpacity=100;strokeWidth=1.5;rounded=1;arcSize=12;edgeStyle=orthogonalEdgeStyle;startArrow=none;endArrow=block;endFill=1;exitX=0.5;exitY=1.006;exitPerimeter=0;entryX=0.5;entryY=-0.003;entryPerimeter=0;lucidId=Muff_2783Duj;" parent="WIyWlLk6GJQsqaUBKTNV-1" source="Rz6tWYdozI2A_UNbcyXa-16" target="Rz6tWYdozI2A_UNbcyXa-76" edge="1">
          <mxGeometry width="100" height="100" relative="1" as="geometry">
            <Array as="points" />
          </mxGeometry>
        </mxCell>
        <mxCell id="Rz6tWYdozI2A_UNbcyXa-23" value="" style="html=1;jettySize=18;whiteSpace=wrap;fontSize=13;strokeOpacity=100;strokeWidth=1.5;rounded=1;arcSize=12;edgeStyle=orthogonalEdgeStyle;startArrow=none;endArrow=block;endFill=1;exitX=0.5;exitY=1.006;exitPerimeter=0;entryX=0.5;entryY=-0.003;entryPerimeter=0;lucidId=Muffior6BZyr;" parent="WIyWlLk6GJQsqaUBKTNV-1" source="Rz6tWYdozI2A_UNbcyXa-16" target="Rz6tWYdozI2A_UNbcyXa-82" edge="1">
          <mxGeometry width="100" height="100" relative="1" as="geometry">
            <Array as="points" />
          </mxGeometry>
        </mxCell>
        <mxCell id="Rz6tWYdozI2A_UNbcyXa-24" value="" style="html=1;jettySize=18;whiteSpace=wrap;fontSize=13;strokeOpacity=100;strokeWidth=1.5;rounded=1;arcSize=12;edgeStyle=orthogonalEdgeStyle;startArrow=none;endArrow=block;endFill=1;exitX=0.5;exitY=1.006;exitPerimeter=0;entryX=0.5;entryY=-0.003;entryPerimeter=0;lucidId=MuffGXbkXBv-;" parent="WIyWlLk6GJQsqaUBKTNV-1" source="Rz6tWYdozI2A_UNbcyXa-16" target="Rz6tWYdozI2A_UNbcyXa-26" edge="1">
          <mxGeometry width="100" height="100" relative="1" as="geometry">
            <Array as="points" />
          </mxGeometry>
        </mxCell>
        <mxCell id="Rz6tWYdozI2A_UNbcyXa-25" value="" style="html=1;jettySize=18;whiteSpace=wrap;fontSize=13;strokeOpacity=100;strokeWidth=1.5;rounded=1;arcSize=12;edgeStyle=orthogonalEdgeStyle;startArrow=none;endArrow=block;endFill=1;exitX=0.5;exitY=1.006;exitPerimeter=0;entryX=0.5;entryY=-0.003;entryPerimeter=0;lucidId=Muffo7ELz~1Y;" parent="WIyWlLk6GJQsqaUBKTNV-1" source="Rz6tWYdozI2A_UNbcyXa-16" target="Rz6tWYdozI2A_UNbcyXa-88" edge="1">
          <mxGeometry width="100" height="100" relative="1" as="geometry">
            <Array as="points" />
          </mxGeometry>
        </mxCell>
        <mxCell id="Rz6tWYdozI2A_UNbcyXa-26" value="Ingresar Vehículo" style="html=1;overflow=block;blockSpacing=1;whiteSpace=wrap;ellipse;fontSize=13;fontColor=#ffffff;spacing=3.8;verticalAlign=middle;strokeOpacity=100;fillOpacity=100;rounded=1;absoluteArcSize=1;arcSize=9;fillColor=#000000;strokeWidth=NaN;lucidId=.Dffa5nA~k27;" parent="WIyWlLk6GJQsqaUBKTNV-1" vertex="1">
          <mxGeometry x="257" y="-1344" width="120" height="120" as="geometry" />
        </mxCell>
        <mxCell id="Rz6tWYdozI2A_UNbcyXa-27" value="Ingresar Vehículo" style="html=1;overflow=block;blockSpacing=1;whiteSpace=wrap;ellipse;fontSize=13;fontColor=#ffffff;spacing=3.8;verticalAlign=middle;strokeOpacity=100;fillOpacity=100;rounded=1;absoluteArcSize=1;arcSize=9;fillColor=#000000;strokeWidth=NaN;lucidId=IFffKBc2bHPW;" parent="WIyWlLk6GJQsqaUBKTNV-1" vertex="1">
          <mxGeometry x="-95" y="-984" width="120" height="120" as="geometry" />
        </mxCell>
        <mxCell id="Rz6tWYdozI2A_UNbcyXa-28" value="Vehículo de cualquier tipo." style="html=1;overflow=block;blockSpacing=1;whiteSpace=wrap;fontSize=13;fontColor=#ffffff;spacing=3.8;verticalAlign=middle;strokeOpacity=100;fillOpacity=100;rounded=1;absoluteArcSize=1;arcSize=9;fillColor=#00290a;strokeWidth=2.3;lucidId=-Iff3dilui5g;" parent="WIyWlLk6GJQsqaUBKTNV-1" vertex="1">
          <mxGeometry x="-485" y="-744" width="180" height="60" as="geometry" />
        </mxCell>
        <mxCell id="Rz6tWYdozI2A_UNbcyXa-29" value="Tomar la fecha y hora en que ingresó" style="html=1;overflow=block;blockSpacing=1;whiteSpace=wrap;fontSize=13;fontColor=#ffffff;spacing=3.8;verticalAlign=middle;strokeOpacity=100;fillOpacity=100;rounded=1;absoluteArcSize=1;arcSize=9;fillColor=#00290a;strokeWidth=2.3;lucidId=GJffZIGeOyxN;" parent="WIyWlLk6GJQsqaUBKTNV-1" vertex="1">
          <mxGeometry x="-245" y="-744" width="180" height="60" as="geometry" />
        </mxCell>
        <mxCell id="Rz6tWYdozI2A_UNbcyXa-30" value="La placa (Vehiculo/Moto)o descripción de bicicleta. " style="html=1;overflow=block;blockSpacing=1;whiteSpace=wrap;fontSize=13;fontColor=#ffffff;spacing=3.8;verticalAlign=middle;strokeOpacity=100;fillOpacity=100;rounded=1;absoluteArcSize=1;arcSize=9;fillColor=#00290a;strokeWidth=2.3;lucidId=9Jffkhm65NWV;" parent="WIyWlLk6GJQsqaUBKTNV-1" vertex="1">
          <mxGeometry x="-5" y="-744" width="180" height="60" as="geometry" />
        </mxCell>
        <mxCell id="Rz6tWYdozI2A_UNbcyXa-31" value="Plantilla" style="html=1;overflow=block;blockSpacing=1;whiteSpace=wrap;fontSize=13;fontColor=#ffffff;spacing=3.8;verticalAlign=middle;strokeOpacity=100;fillOpacity=100;rounded=1;absoluteArcSize=1;arcSize=9;fillColor=#00290a;strokeWidth=2.3;lucidId=ZKffe.5ZL1Lq;" parent="WIyWlLk6GJQsqaUBKTNV-1" vertex="1">
          <mxGeometry x="-1220" y="-339" width="180" height="45" as="geometry" />
        </mxCell>
        <mxCell id="Rz6tWYdozI2A_UNbcyXa-32" value="Asignar espacios libres según tipo, o, la cantidad espacios libres continuos cuando es un vehículo grande." style="html=1;overflow=block;blockSpacing=1;whiteSpace=wrap;fontSize=13;fontColor=#ffffff;spacing=3.8;verticalAlign=middle;strokeOpacity=100;fillOpacity=100;rounded=1;absoluteArcSize=1;arcSize=9;fillColor=#00290a;strokeWidth=2.3;lucidId=1KffxFzL-qOX;" parent="WIyWlLk6GJQsqaUBKTNV-1" vertex="1">
          <mxGeometry x="235" y="-744" width="180" height="60" as="geometry" />
        </mxCell>
        <mxCell id="Rz6tWYdozI2A_UNbcyXa-33" value="Colocar como ocupado los espacios asignados a esa entrada. " style="html=1;overflow=block;blockSpacing=1;whiteSpace=wrap;fontSize=13;fontColor=#ffffff;spacing=3.8;verticalAlign=middle;strokeOpacity=100;fillOpacity=100;rounded=1;absoluteArcSize=1;arcSize=9;fillColor=#00290a;strokeWidth=2.3;lucidId=WLff2xl~ulmp;" parent="WIyWlLk6GJQsqaUBKTNV-1" vertex="1">
          <mxGeometry x="-365" y="-624" width="180" height="60" as="geometry" />
        </mxCell>
        <mxCell id="Rz6tWYdozI2A_UNbcyXa-34" value="Debe validar que no se repitan placas que estén en el parqueo activas. " style="html=1;overflow=block;blockSpacing=1;whiteSpace=wrap;fontSize=13;fontColor=#ffffff;spacing=3.8;verticalAlign=middle;strokeOpacity=100;fillOpacity=100;rounded=1;absoluteArcSize=1;arcSize=9;fillColor=#00290a;strokeWidth=2.3;lucidId=1LffVJPzJ.3a;" parent="WIyWlLk6GJQsqaUBKTNV-1" vertex="1">
          <mxGeometry x="-125" y="-624" width="180" height="60" as="geometry" />
        </mxCell>
        <mxCell id="Rz6tWYdozI2A_UNbcyXa-35" value="Sí pueden ingresar la misma placa siempre que no esté en el parqueo en ese momento, es decir, que esté fuera." style="html=1;overflow=block;blockSpacing=1;whiteSpace=wrap;fontSize=13;fontColor=#ffffff;spacing=3.8;verticalAlign=middle;strokeOpacity=100;fillOpacity=100;rounded=1;absoluteArcSize=1;arcSize=9;fillColor=#00290a;strokeWidth=2.3;lucidId=7LffWVX5d1eT;" parent="WIyWlLk6GJQsqaUBKTNV-1" vertex="1">
          <mxGeometry x="115" y="-624" width="180" height="60" as="geometry" />
        </mxCell>
        <mxCell id="Rz6tWYdozI2A_UNbcyXa-36" value="" style="html=1;jettySize=18;whiteSpace=wrap;fontSize=13;strokeOpacity=100;strokeWidth=0.8;rounded=1;arcSize=12;edgeStyle=orthogonalEdgeStyle;startArrow=none;endArrow=block;endFill=1;exitX=0.5;exitY=1.003;exitPerimeter=0;entryX=0.5;entryY=-0.019;entryPerimeter=0;lucidId=3MffViPo8mDE;" parent="WIyWlLk6GJQsqaUBKTNV-1" source="Rz6tWYdozI2A_UNbcyXa-27" target="Rz6tWYdozI2A_UNbcyXa-34" edge="1">
          <mxGeometry width="100" height="100" relative="1" as="geometry">
            <Array as="points" />
          </mxGeometry>
        </mxCell>
        <mxCell id="Rz6tWYdozI2A_UNbcyXa-37" value="" style="html=1;jettySize=18;whiteSpace=wrap;fontSize=13;strokeOpacity=100;strokeWidth=0.8;rounded=1;arcSize=12;edgeStyle=orthogonalEdgeStyle;startArrow=none;endArrow=block;endFill=1;exitX=0.5;exitY=1.003;exitPerimeter=0;entryX=0.5;entryY=-0.019;entryPerimeter=0;lucidId=8MffNKRgQv.R;" parent="WIyWlLk6GJQsqaUBKTNV-1" source="Rz6tWYdozI2A_UNbcyXa-27" target="Rz6tWYdozI2A_UNbcyXa-33" edge="1">
          <mxGeometry width="100" height="100" relative="1" as="geometry">
            <Array as="points" />
          </mxGeometry>
        </mxCell>
        <mxCell id="Rz6tWYdozI2A_UNbcyXa-38" value="" style="html=1;jettySize=18;whiteSpace=wrap;fontSize=13;strokeOpacity=100;strokeWidth=0.8;rounded=1;arcSize=12;edgeStyle=orthogonalEdgeStyle;startArrow=none;endArrow=block;endFill=1;exitX=0.5;exitY=1.003;exitPerimeter=0;entryX=0.5;entryY=-0.019;entryPerimeter=0;lucidId=hNffOrLXIWQF;" parent="WIyWlLk6GJQsqaUBKTNV-1" source="Rz6tWYdozI2A_UNbcyXa-27" target="Rz6tWYdozI2A_UNbcyXa-29" edge="1">
          <mxGeometry width="100" height="100" relative="1" as="geometry">
            <Array as="points" />
          </mxGeometry>
        </mxCell>
        <mxCell id="Rz6tWYdozI2A_UNbcyXa-39" value="" style="html=1;jettySize=18;whiteSpace=wrap;fontSize=13;strokeOpacity=100;strokeWidth=0.8;rounded=1;arcSize=12;edgeStyle=orthogonalEdgeStyle;startArrow=none;endArrow=block;endFill=1;exitX=0.5;exitY=1.003;exitPerimeter=0;entryX=0.5;entryY=-0.019;entryPerimeter=0;lucidId=jNffBBMbhjEZ;" parent="WIyWlLk6GJQsqaUBKTNV-1" source="Rz6tWYdozI2A_UNbcyXa-27" target="Rz6tWYdozI2A_UNbcyXa-28" edge="1">
          <mxGeometry width="100" height="100" relative="1" as="geometry">
            <Array as="points" />
          </mxGeometry>
        </mxCell>
        <mxCell id="Rz6tWYdozI2A_UNbcyXa-40" value="" style="html=1;jettySize=18;whiteSpace=wrap;fontSize=13;strokeOpacity=100;strokeWidth=0.8;rounded=1;arcSize=12;edgeStyle=orthogonalEdgeStyle;startArrow=none;endArrow=block;endFill=1;exitX=0.5;exitY=1.003;exitPerimeter=0;entryX=0.5;entryY=-0.019;entryPerimeter=0;lucidId=lNffIGtfuXKP;" parent="WIyWlLk6GJQsqaUBKTNV-1" source="Rz6tWYdozI2A_UNbcyXa-27" target="Rz6tWYdozI2A_UNbcyXa-30" edge="1">
          <mxGeometry width="100" height="100" relative="1" as="geometry">
            <Array as="points" />
          </mxGeometry>
        </mxCell>
        <mxCell id="Rz6tWYdozI2A_UNbcyXa-41" value="" style="html=1;jettySize=18;whiteSpace=wrap;fontSize=13;strokeOpacity=100;strokeWidth=0.8;rounded=1;arcSize=12;edgeStyle=orthogonalEdgeStyle;startArrow=none;endArrow=block;endFill=1;exitX=0.5;exitY=1.003;exitPerimeter=0;entryX=0.5;entryY=-0.019;entryPerimeter=0;lucidId=pNffXyypSDcM;" parent="WIyWlLk6GJQsqaUBKTNV-1" source="Rz6tWYdozI2A_UNbcyXa-27" target="Rz6tWYdozI2A_UNbcyXa-32" edge="1">
          <mxGeometry width="100" height="100" relative="1" as="geometry">
            <Array as="points" />
          </mxGeometry>
        </mxCell>
        <mxCell id="Rz6tWYdozI2A_UNbcyXa-42" value="" style="html=1;jettySize=18;whiteSpace=wrap;fontSize=13;strokeOpacity=100;strokeWidth=0.8;rounded=1;arcSize=12;edgeStyle=orthogonalEdgeStyle;startArrow=none;endArrow=block;endFill=1;exitX=0.5;exitY=1.003;exitPerimeter=0;entryX=0.5;entryY=-0.019;entryPerimeter=0;lucidId=sNffIanLJLPT;" parent="WIyWlLk6GJQsqaUBKTNV-1" source="Rz6tWYdozI2A_UNbcyXa-27" target="Rz6tWYdozI2A_UNbcyXa-35" edge="1">
          <mxGeometry width="100" height="100" relative="1" as="geometry">
            <Array as="points" />
          </mxGeometry>
        </mxCell>
        <mxCell id="Rz6tWYdozI2A_UNbcyXa-43" value="Consultar Vehículo" style="html=1;overflow=block;blockSpacing=1;whiteSpace=wrap;ellipse;fontSize=13;fontColor=#ffffff;spacing=3.8;verticalAlign=middle;strokeOpacity=100;fillOpacity=100;rounded=1;absoluteArcSize=1;arcSize=9;fillColor=#000000;strokeWidth=NaN;lucidId=yPffilUa9zCL;" parent="WIyWlLk6GJQsqaUBKTNV-1" vertex="1">
          <mxGeometry x="437" y="-1344" width="120" height="120" as="geometry" />
        </mxCell>
        <mxCell id="Rz6tWYdozI2A_UNbcyXa-44" value="Consultar Vehículo" style="html=1;overflow=block;blockSpacing=1;whiteSpace=wrap;ellipse;fontSize=13;fontColor=#ffffff;spacing=3.8;verticalAlign=middle;strokeOpacity=100;fillOpacity=100;rounded=1;absoluteArcSize=1;arcSize=9;fillColor=#000000;strokeWidth=NaN;lucidId=SPffvS8RabMo;" parent="WIyWlLk6GJQsqaUBKTNV-1" vertex="1">
          <mxGeometry x="879" y="-955" width="120" height="120" as="geometry" />
        </mxCell>
        <mxCell id="Rz6tWYdozI2A_UNbcyXa-45" value="Consultar vehículo por placa/descripción (bicicletas)." style="html=1;overflow=block;blockSpacing=1;whiteSpace=wrap;fontSize=13;fontColor=#ffffff;spacing=3.8;verticalAlign=middle;strokeOpacity=100;fillOpacity=100;rounded=1;absoluteArcSize=1;arcSize=9;fillColor=#00290a;strokeWidth=2.3;lucidId=WPffXZRvS3Gl;" parent="WIyWlLk6GJQsqaUBKTNV-1" vertex="1">
          <mxGeometry x="609" y="-714" width="180" height="60" as="geometry" />
        </mxCell>
        <mxCell id="Rz6tWYdozI2A_UNbcyXa-46" value="Esta opción lo que hace es sacar todos los vehículos que están en el parqueo y cobrarles. Posteriormente dar un reporte de todos los vehículos que estuvieron ese día, las horas y montos pagados y un total de lo cobrado en el día" style="html=1;overflow=block;blockSpacing=1;whiteSpace=wrap;fontSize=13;fontColor=#ffffff;spacing=3.8;strokeOpacity=100;fillOpacity=100;rounded=1;absoluteArcSize=1;arcSize=9;fillColor=#00290a;strokeWidth=2.3;lucidId=l5xfUrYte4je;" parent="WIyWlLk6GJQsqaUBKTNV-1" vertex="1">
          <mxGeometry x="-1220" y="-205" width="180" height="68" as="geometry" />
        </mxCell>
        <mxCell id="Rz6tWYdozI2A_UNbcyXa-47" value="ejemplo: “bici roja” y retorna las bicicletas que tengan “bici” o “roja” en la descripción" style="html=1;overflow=block;blockSpacing=1;whiteSpace=wrap;fontSize=13;fontColor=#ffffff;spacing=3.8;verticalAlign=middle;strokeOpacity=100;fillOpacity=100;rounded=1;absoluteArcSize=1;arcSize=9;fillColor=#00290a;strokeWidth=2.3;lucidId=N8xf25ve-pA.;" parent="WIyWlLk6GJQsqaUBKTNV-1" vertex="1">
          <mxGeometry x="609" y="-594" width="180" height="60" as="geometry" />
        </mxCell>
        <mxCell id="Rz6tWYdozI2A_UNbcyXa-48" value="" style="html=1;jettySize=18;whiteSpace=wrap;fontSize=13;strokeOpacity=100;strokeWidth=0.8;rounded=1;arcSize=12;edgeStyle=orthogonalEdgeStyle;startArrow=none;endArrow=block;endFill=1;exitX=-0.006;exitY=0.469;exitPerimeter=0;entryX=-0.006;entryY=0.5;entryPerimeter=0;lucidId=38xf~_FG_GYW;" parent="WIyWlLk6GJQsqaUBKTNV-1" source="Rz6tWYdozI2A_UNbcyXa-45" target="Rz6tWYdozI2A_UNbcyXa-47" edge="1">
          <mxGeometry width="100" height="100" relative="1" as="geometry">
            <Array as="points" />
          </mxGeometry>
        </mxCell>
        <mxCell id="Rz6tWYdozI2A_UNbcyXa-49" value="" style="html=1;jettySize=18;whiteSpace=wrap;fontSize=13;strokeOpacity=100;strokeWidth=0.8;rounded=1;arcSize=12;edgeStyle=orthogonalEdgeStyle;startArrow=none;endArrow=block;endFill=1;exitX=0.5;exitY=1.003;exitPerimeter=0;entryX=0.5;entryY=-0.019;entryPerimeter=0;lucidId=h9xfeBkyCWoy;" parent="WIyWlLk6GJQsqaUBKTNV-1" source="Rz6tWYdozI2A_UNbcyXa-44" target="Rz6tWYdozI2A_UNbcyXa-45" edge="1">
          <mxGeometry width="100" height="100" relative="1" as="geometry">
            <Array as="points" />
          </mxGeometry>
        </mxCell>
        <mxCell id="Rz6tWYdozI2A_UNbcyXa-50" value="Si se encuentra, mostrar:&#xa;Placa o descripción&#xa;Entrada (supongo hora)&#xa;Cantidad de horas al momento&#xa;Monto hasta el momento" style="html=1;overflow=block;blockSpacing=1;whiteSpace=wrap;fontSize=13;fontColor=#ffffff;spacing=3.8;verticalAlign=middle;strokeOpacity=100;fillOpacity=100;rounded=1;absoluteArcSize=1;arcSize=9;fillColor=#00290a;strokeWidth=2.3;lucidId=m9xf7tihkbfQ;" parent="WIyWlLk6GJQsqaUBKTNV-1" vertex="1">
          <mxGeometry x="1089" y="-594" width="180" height="60" as="geometry" />
        </mxCell>
        <mxCell id="Rz6tWYdozI2A_UNbcyXa-51" value="Si no se encuentra:&#xa;Mensaje que indique que no se encontró" style="html=1;overflow=block;blockSpacing=1;whiteSpace=wrap;fontSize=13;fontColor=#ffffff;spacing=3.8;verticalAlign=middle;strokeOpacity=100;fillOpacity=100;rounded=1;absoluteArcSize=1;arcSize=9;fillColor=#00290a;strokeWidth=2.3;lucidId=B-xfuvdRWvk-;" parent="WIyWlLk6GJQsqaUBKTNV-1" vertex="1">
          <mxGeometry x="849" y="-714" width="180" height="60" as="geometry" />
        </mxCell>
        <mxCell id="Rz6tWYdozI2A_UNbcyXa-52" value="Si se encuentran más mostrar todos los que se encontraron (bicis)" style="html=1;overflow=block;blockSpacing=1;whiteSpace=wrap;fontSize=13;fontColor=#ffffff;spacing=3.8;verticalAlign=middle;strokeOpacity=100;fillOpacity=100;rounded=1;absoluteArcSize=1;arcSize=9;fillColor=#00290a;strokeWidth=2.3;lucidId=b_xf4BnH_BDB;" parent="WIyWlLk6GJQsqaUBKTNV-1" vertex="1">
          <mxGeometry x="1089" y="-714" width="180" height="60" as="geometry" />
        </mxCell>
        <mxCell id="Rz6tWYdozI2A_UNbcyXa-53" value="" style="html=1;jettySize=18;whiteSpace=wrap;fontSize=13;strokeOpacity=100;strokeWidth=0.8;rounded=1;arcSize=12;edgeStyle=orthogonalEdgeStyle;startArrow=none;endArrow=block;endFill=1;exitX=0.5;exitY=1.003;exitPerimeter=0;entryX=0.5;entryY=-0.019;entryPerimeter=0;lucidId=7_xfLFJq4g_9;" parent="WIyWlLk6GJQsqaUBKTNV-1" source="Rz6tWYdozI2A_UNbcyXa-44" target="Rz6tWYdozI2A_UNbcyXa-51" edge="1">
          <mxGeometry width="100" height="100" relative="1" as="geometry">
            <Array as="points" />
          </mxGeometry>
        </mxCell>
        <mxCell id="Rz6tWYdozI2A_UNbcyXa-54" value="" style="html=1;jettySize=18;whiteSpace=wrap;fontSize=13;strokeOpacity=100;strokeWidth=0.8;rounded=1;arcSize=12;edgeStyle=orthogonalEdgeStyle;startArrow=none;endArrow=block;endFill=1;exitX=0.5;exitY=1.003;exitPerimeter=0;entryX=0.5;entryY=-0.019;entryPerimeter=0;lucidId=-_xfaqBOlpB2;" parent="WIyWlLk6GJQsqaUBKTNV-1" source="Rz6tWYdozI2A_UNbcyXa-44" target="Rz6tWYdozI2A_UNbcyXa-52" edge="1">
          <mxGeometry width="100" height="100" relative="1" as="geometry">
            <Array as="points" />
          </mxGeometry>
        </mxCell>
        <mxCell id="Rz6tWYdozI2A_UNbcyXa-55" value="Salida Vehículo" style="html=1;overflow=block;blockSpacing=1;whiteSpace=wrap;ellipse;fontSize=13;fontColor=#ffffff;spacing=3.8;verticalAlign=middle;strokeOpacity=100;fillOpacity=100;rounded=1;absoluteArcSize=1;arcSize=9;fillColor=#000000;strokeWidth=NaN;lucidId=K.xfrDMr.--u;" parent="WIyWlLk6GJQsqaUBKTNV-1" vertex="1">
          <mxGeometry x="617" y="-1344" width="120" height="120" as="geometry" />
        </mxCell>
        <mxCell id="Rz6tWYdozI2A_UNbcyXa-56" value="Salida Vehículo" style="html=1;overflow=block;blockSpacing=1;whiteSpace=wrap;ellipse;fontSize=13;fontColor=#ffffff;spacing=3.8;verticalAlign=middle;strokeOpacity=100;fillOpacity=100;rounded=1;absoluteArcSize=1;arcSize=9;fillColor=#000000;strokeWidth=NaN;lucidId=uayfkK6z-aOP;" parent="WIyWlLk6GJQsqaUBKTNV-1" vertex="1">
          <mxGeometry x="1556" y="-992" width="120" height="120" as="geometry" />
        </mxCell>
        <mxCell id="Rz6tWYdozI2A_UNbcyXa-57" value="Dar salida y cobrar, por placa o posición de parqueo." style="html=1;overflow=block;blockSpacing=1;whiteSpace=wrap;fontSize=13;fontColor=#ffffff;spacing=3.8;verticalAlign=middle;strokeOpacity=100;fillOpacity=100;rounded=1;absoluteArcSize=1;arcSize=9;fillColor=#00290a;strokeWidth=2.3;lucidId=zayf66wBBkCX;" parent="WIyWlLk6GJQsqaUBKTNV-1" vertex="1">
          <mxGeometry x="1406" y="-752" width="180" height="60" as="geometry" />
        </mxCell>
        <mxCell id="Rz6tWYdozI2A_UNbcyXa-58" value="Se toma la fecha y hora, calcula cantidad de horas, y se cobra" style="html=1;overflow=block;blockSpacing=1;whiteSpace=wrap;fontSize=13;fontColor=#ffffff;spacing=3.8;verticalAlign=middle;strokeOpacity=100;fillOpacity=100;rounded=1;absoluteArcSize=1;arcSize=9;fillColor=#00290a;strokeWidth=2.3;lucidId=Sbyf80_aokpc;" parent="WIyWlLk6GJQsqaUBKTNV-1" vertex="1">
          <mxGeometry x="1646" y="-752" width="180" height="60" as="geometry" />
        </mxCell>
        <mxCell id="Rz6tWYdozI2A_UNbcyXa-59" value="Mostrar información vehículo:&#xa;Entrada&#xa;Salida&#xa;Total de horas&#xa;Tarifa por horas&#xa;Monto a pagar" style="html=1;overflow=block;blockSpacing=1;whiteSpace=wrap;fontSize=13;fontColor=#ffffff;spacing=3.8;verticalAlign=middle;strokeOpacity=100;fillOpacity=100;rounded=1;absoluteArcSize=1;arcSize=9;fillColor=#00290a;strokeWidth=2.3;lucidId=-eyfM0S7-zmK;" parent="WIyWlLk6GJQsqaUBKTNV-1" vertex="1">
          <mxGeometry x="1646" y="-632" width="180" height="60" as="geometry" />
        </mxCell>
        <mxCell id="Rz6tWYdozI2A_UNbcyXa-60" value="Guardar información para dar el cierre del día." style="html=1;overflow=block;blockSpacing=1;whiteSpace=wrap;fontSize=13;fontColor=#ffffff;spacing=3.8;verticalAlign=middle;strokeOpacity=100;fillOpacity=100;rounded=1;absoluteArcSize=1;arcSize=9;fillColor=#00290a;strokeWidth=2.3;lucidId=ogyfejIfjNOh;" parent="WIyWlLk6GJQsqaUBKTNV-1" vertex="1">
          <mxGeometry x="1886" y="-752" width="180" height="60" as="geometry" />
        </mxCell>
        <mxCell id="Rz6tWYdozI2A_UNbcyXa-61" value="Liberar espacio del parqueo" style="html=1;overflow=block;blockSpacing=1;whiteSpace=wrap;fontSize=13;fontColor=#ffffff;spacing=3.8;verticalAlign=middle;strokeOpacity=100;fillOpacity=100;rounded=1;absoluteArcSize=1;arcSize=9;fillColor=#00290a;strokeWidth=2.3;lucidId=MgyfnrdoFesd;" parent="WIyWlLk6GJQsqaUBKTNV-1" vertex="1">
          <mxGeometry x="1406" y="-632" width="180" height="60" as="geometry" />
        </mxCell>
        <mxCell id="Rz6tWYdozI2A_UNbcyXa-62" value="" style="html=1;jettySize=18;whiteSpace=wrap;fontSize=13;strokeOpacity=100;strokeWidth=0.8;rounded=1;arcSize=12;edgeStyle=orthogonalEdgeStyle;startArrow=none;endArrow=block;endFill=1;exitX=0.5;exitY=1.003;exitPerimeter=0;entryX=0.5;entryY=-0.019;entryPerimeter=0;lucidId=vhyfGILfmPu4;" parent="WIyWlLk6GJQsqaUBKTNV-1" source="Rz6tWYdozI2A_UNbcyXa-56" target="Rz6tWYdozI2A_UNbcyXa-57" edge="1">
          <mxGeometry width="100" height="100" relative="1" as="geometry">
            <Array as="points" />
          </mxGeometry>
        </mxCell>
        <mxCell id="Rz6tWYdozI2A_UNbcyXa-63" value="" style="html=1;jettySize=18;whiteSpace=wrap;fontSize=13;strokeOpacity=100;strokeWidth=0.8;rounded=1;arcSize=12;edgeStyle=orthogonalEdgeStyle;startArrow=none;endArrow=block;endFill=1;exitX=-0.006;exitY=0.5;exitPerimeter=0;entryX=-0.006;entryY=0.5;entryPerimeter=0;lucidId=zhyfbHHhBfeP;" parent="WIyWlLk6GJQsqaUBKTNV-1" source="Rz6tWYdozI2A_UNbcyXa-57" target="Rz6tWYdozI2A_UNbcyXa-61" edge="1">
          <mxGeometry width="100" height="100" relative="1" as="geometry">
            <Array as="points" />
          </mxGeometry>
        </mxCell>
        <mxCell id="Rz6tWYdozI2A_UNbcyXa-64" value="" style="html=1;jettySize=18;whiteSpace=wrap;fontSize=13;strokeOpacity=100;strokeWidth=0.8;rounded=1;arcSize=12;edgeStyle=orthogonalEdgeStyle;startArrow=none;endArrow=block;endFill=1;exitX=0.5;exitY=1.003;exitPerimeter=0;entryX=0.5;entryY=-0.019;entryPerimeter=0;lucidId=ThyfjM5PvPLw;" parent="WIyWlLk6GJQsqaUBKTNV-1" source="Rz6tWYdozI2A_UNbcyXa-56" target="Rz6tWYdozI2A_UNbcyXa-58" edge="1">
          <mxGeometry width="100" height="100" relative="1" as="geometry">
            <Array as="points" />
          </mxGeometry>
        </mxCell>
        <mxCell id="Rz6tWYdozI2A_UNbcyXa-65" value="" style="html=1;jettySize=18;whiteSpace=wrap;fontSize=13;strokeOpacity=100;strokeWidth=0.8;rounded=1;arcSize=12;edgeStyle=orthogonalEdgeStyle;startArrow=none;endArrow=block;endFill=1;exitX=-0.006;exitY=0.5;exitPerimeter=0;entryX=-0.006;entryY=0.5;entryPerimeter=0;lucidId=XhyfCC6qQmvG;" parent="WIyWlLk6GJQsqaUBKTNV-1" source="Rz6tWYdozI2A_UNbcyXa-58" target="Rz6tWYdozI2A_UNbcyXa-59" edge="1">
          <mxGeometry width="100" height="100" relative="1" as="geometry">
            <Array as="points" />
          </mxGeometry>
        </mxCell>
        <mxCell id="Rz6tWYdozI2A_UNbcyXa-66" value="" style="html=1;jettySize=18;whiteSpace=wrap;fontSize=13;strokeOpacity=100;strokeWidth=0.8;rounded=1;arcSize=12;edgeStyle=orthogonalEdgeStyle;startArrow=none;endArrow=block;endFill=1;exitX=1.006;exitY=0.5;exitPerimeter=0;entryX=-0.006;entryY=0.5;entryPerimeter=0;lucidId=0hyfnguJBs.E;" parent="WIyWlLk6GJQsqaUBKTNV-1" source="Rz6tWYdozI2A_UNbcyXa-58" target="Rz6tWYdozI2A_UNbcyXa-60" edge="1">
          <mxGeometry width="100" height="100" relative="1" as="geometry">
            <Array as="points" />
          </mxGeometry>
        </mxCell>
        <mxCell id="Rz6tWYdozI2A_UNbcyXa-67" value="Consultar Parqueo" style="html=1;overflow=block;blockSpacing=1;whiteSpace=wrap;ellipse;fontSize=13;fontColor=#ffffff;spacing=3.8;verticalAlign=middle;strokeOpacity=100;fillOpacity=100;rounded=1;absoluteArcSize=1;arcSize=9;fillColor=#000000;strokeWidth=NaN;lucidId=ziyfEhcb~OpV;" parent="WIyWlLk6GJQsqaUBKTNV-1" vertex="1">
          <mxGeometry x="798" y="-1344" width="120" height="120" as="geometry" />
        </mxCell>
        <mxCell id="Rz6tWYdozI2A_UNbcyXa-68" value="" style="html=1;jettySize=18;whiteSpace=wrap;fontSize=13;strokeOpacity=100;strokeWidth=0.8;rounded=1;arcSize=12;edgeStyle=orthogonalEdgeStyle;startArrow=none;endArrow=block;endFill=1;exitX=1.006;exitY=0.5;exitPerimeter=0;entryX=1.006;entryY=0.5;entryPerimeter=0;lucidId=wjyfT~aI915p;" parent="WIyWlLk6GJQsqaUBKTNV-1" source="Rz6tWYdozI2A_UNbcyXa-52" target="Rz6tWYdozI2A_UNbcyXa-50" edge="1">
          <mxGeometry width="100" height="100" relative="1" as="geometry">
            <Array as="points" />
          </mxGeometry>
        </mxCell>
        <mxCell id="Rz6tWYdozI2A_UNbcyXa-69" value="Imprimir todas las posiciones del parqueo" style="html=1;overflow=block;blockSpacing=1;whiteSpace=wrap;fontSize=13;fontColor=#ffffff;spacing=3.8;verticalAlign=middle;strokeOpacity=100;fillOpacity=100;rounded=1;absoluteArcSize=1;arcSize=9;fillColor=#00290a;strokeWidth=2.3;lucidId=Xjyf.fPu6SQ9;" parent="WIyWlLk6GJQsqaUBKTNV-1" vertex="1">
          <mxGeometry x="-80" y="-190" width="180" height="60" as="geometry" />
        </mxCell>
        <mxCell id="Rz6tWYdozI2A_UNbcyXa-70" value="Consultar Parqueo" style="html=1;overflow=block;blockSpacing=1;whiteSpace=wrap;ellipse;fontSize=13;fontColor=#ffffff;spacing=3.8;verticalAlign=middle;strokeOpacity=100;fillOpacity=100;rounded=1;absoluteArcSize=1;arcSize=9;fillColor=#000000;strokeWidth=NaN;lucidId=mkyflRs21h1W;" parent="WIyWlLk6GJQsqaUBKTNV-1" vertex="1">
          <mxGeometry x="-50" y="-369" width="120" height="120" as="geometry" />
        </mxCell>
        <mxCell id="Rz6tWYdozI2A_UNbcyXa-71" value="If ocupado:&#xa;Mostrar vehículo (placa o descripción&#xa;Hora ingreso&#xa;Horas en el parqueo" style="html=1;overflow=block;blockSpacing=1;whiteSpace=wrap;fontSize=13;fontColor=#ffffff;spacing=3.8;verticalAlign=middle;strokeOpacity=100;fillOpacity=100;rounded=1;absoluteArcSize=1;arcSize=9;fillColor=#00290a;strokeWidth=2.3;lucidId=GlyfdhkIxqLC;" parent="WIyWlLk6GJQsqaUBKTNV-1" vertex="1">
          <mxGeometry x="-200" y="-69" width="180" height="60" as="geometry" />
        </mxCell>
        <mxCell id="Rz6tWYdozI2A_UNbcyXa-72" value="Para los espacios libres, indicar que está disponible" style="html=1;overflow=block;blockSpacing=1;whiteSpace=wrap;fontSize=13;fontColor=#ffffff;spacing=3.8;verticalAlign=middle;strokeOpacity=100;fillOpacity=100;rounded=1;absoluteArcSize=1;arcSize=9;fillColor=#00290a;strokeWidth=2.3;lucidId=VmyfYWs_vuOv;" parent="WIyWlLk6GJQsqaUBKTNV-1" vertex="1">
          <mxGeometry x="40" y="-69" width="180" height="60" as="geometry" />
        </mxCell>
        <mxCell id="Rz6tWYdozI2A_UNbcyXa-73" value="" style="html=1;jettySize=18;whiteSpace=wrap;fontSize=13;strokeOpacity=100;strokeWidth=0.8;rounded=1;arcSize=12;edgeStyle=orthogonalEdgeStyle;startArrow=none;endArrow=block;endFill=1;exitX=0.5;exitY=1.003;exitPerimeter=0;entryX=0.5;entryY=-0.019;entryPerimeter=0;lucidId=tnyftBYJOBBj;" parent="WIyWlLk6GJQsqaUBKTNV-1" source="Rz6tWYdozI2A_UNbcyXa-70" target="Rz6tWYdozI2A_UNbcyXa-69" edge="1">
          <mxGeometry width="100" height="100" relative="1" as="geometry">
            <Array as="points" />
          </mxGeometry>
        </mxCell>
        <mxCell id="Rz6tWYdozI2A_UNbcyXa-74" value="" style="html=1;jettySize=18;whiteSpace=wrap;fontSize=13;strokeOpacity=100;strokeWidth=0.8;rounded=1;arcSize=12;edgeStyle=orthogonalEdgeStyle;startArrow=none;endArrow=block;endFill=1;exitX=-0.006;exitY=0.5;exitPerimeter=0;entryX=0.5;entryY=-0.019;entryPerimeter=0;lucidId=Dnyfxq3JUVwt;" parent="WIyWlLk6GJQsqaUBKTNV-1" source="Rz6tWYdozI2A_UNbcyXa-69" target="Rz6tWYdozI2A_UNbcyXa-71" edge="1">
          <mxGeometry width="100" height="100" relative="1" as="geometry">
            <Array as="points" />
          </mxGeometry>
        </mxCell>
        <mxCell id="Rz6tWYdozI2A_UNbcyXa-75" value="" style="html=1;jettySize=18;whiteSpace=wrap;fontSize=13;strokeOpacity=100;strokeWidth=0.8;rounded=1;arcSize=12;edgeStyle=orthogonalEdgeStyle;startArrow=none;endArrow=block;endFill=1;exitX=1.006;exitY=0.5;exitPerimeter=0;entryX=0.5;entryY=-0.019;entryPerimeter=0;lucidId=Fnyfs~H2ww~3;" parent="WIyWlLk6GJQsqaUBKTNV-1" source="Rz6tWYdozI2A_UNbcyXa-69" target="Rz6tWYdozI2A_UNbcyXa-72" edge="1">
          <mxGeometry width="100" height="100" relative="1" as="geometry">
            <Array as="points" />
          </mxGeometry>
        </mxCell>
        <mxCell id="Rz6tWYdozI2A_UNbcyXa-76" value="Consultar historial del vehículo" style="html=1;overflow=block;blockSpacing=1;whiteSpace=wrap;ellipse;fontSize=13;fontColor=#ffffff;spacing=3.8;verticalAlign=middle;strokeOpacity=100;fillOpacity=100;rounded=1;absoluteArcSize=1;arcSize=9;fillColor=#000000;strokeWidth=NaN;lucidId=8nyfljyGMNoO;" parent="WIyWlLk6GJQsqaUBKTNV-1" vertex="1">
          <mxGeometry x="977" y="-1344" width="120" height="120" as="geometry" />
        </mxCell>
        <mxCell id="Rz6tWYdozI2A_UNbcyXa-77" value="Indicar todos los movimientos y que se incluyan:&#xa;Fechas y horas, cantidad de horas, monto pagado o si está en el parqueo." style="html=1;overflow=block;blockSpacing=1;whiteSpace=wrap;fontSize=13;fontColor=#ffffff;spacing=3.8;verticalAlign=middle;strokeOpacity=100;fillOpacity=100;rounded=1;absoluteArcSize=1;arcSize=9;fillColor=#00290a;strokeWidth=2.3;lucidId=xoyfjBJaceQR;" parent="WIyWlLk6GJQsqaUBKTNV-1" vertex="1">
          <mxGeometry x="670" y="-130" width="180" height="60" as="geometry" />
        </mxCell>
        <mxCell id="Rz6tWYdozI2A_UNbcyXa-78" value="Consultar historial del vehículo" style="html=1;overflow=block;blockSpacing=1;whiteSpace=wrap;ellipse;fontSize=13;fontColor=#ffffff;spacing=3.8;verticalAlign=middle;strokeOpacity=100;fillOpacity=100;rounded=1;absoluteArcSize=1;arcSize=9;fillColor=#000000;strokeWidth=NaN;lucidId=yoyfPyJcIfVb;" parent="WIyWlLk6GJQsqaUBKTNV-1" vertex="1">
          <mxGeometry x="820" y="-369" width="120" height="120" as="geometry" />
        </mxCell>
        <mxCell id="Rz6tWYdozI2A_UNbcyXa-79" value="El historial no guarda archivos.&#xa;Solo se guarda lo que tiene en memoria con los registros de esa placa.&#xa;Guardar en alguna estructura de datos entradas/salidas." style="html=1;overflow=block;blockSpacing=1;whiteSpace=wrap;fontSize=13;fontColor=#ffffff;spacing=3.8;verticalAlign=middle;strokeOpacity=100;fillOpacity=100;rounded=1;absoluteArcSize=1;arcSize=9;fillColor=#00290a;strokeWidth=2.3;lucidId=qxyf8wwxodJr;" parent="WIyWlLk6GJQsqaUBKTNV-1" vertex="1">
          <mxGeometry x="910" y="-130" width="180" height="60" as="geometry" />
        </mxCell>
        <mxCell id="Rz6tWYdozI2A_UNbcyXa-80" value="" style="html=1;jettySize=18;whiteSpace=wrap;fontSize=13;strokeOpacity=100;strokeWidth=0.8;rounded=1;arcSize=12;edgeStyle=orthogonalEdgeStyle;startArrow=none;endArrow=block;endFill=1;exitX=0.5;exitY=1.003;exitPerimeter=0;entryX=0.5;entryY=-0.019;entryPerimeter=0;lucidId=PCyfhw~6uhjD;" parent="WIyWlLk6GJQsqaUBKTNV-1" source="Rz6tWYdozI2A_UNbcyXa-78" target="Rz6tWYdozI2A_UNbcyXa-77" edge="1">
          <mxGeometry width="100" height="100" relative="1" as="geometry">
            <Array as="points" />
          </mxGeometry>
        </mxCell>
        <mxCell id="Rz6tWYdozI2A_UNbcyXa-81" value="" style="html=1;jettySize=18;whiteSpace=wrap;fontSize=13;strokeOpacity=100;strokeWidth=0.8;rounded=1;arcSize=12;edgeStyle=orthogonalEdgeStyle;startArrow=none;endArrow=block;endFill=1;exitX=0.5;exitY=1.003;exitPerimeter=0;entryX=0.5;entryY=-0.019;entryPerimeter=0;lucidId=VCyfbRirF~U-;" parent="WIyWlLk6GJQsqaUBKTNV-1" source="Rz6tWYdozI2A_UNbcyXa-78" target="Rz6tWYdozI2A_UNbcyXa-79" edge="1">
          <mxGeometry width="100" height="100" relative="1" as="geometry">
            <Array as="points" />
          </mxGeometry>
        </mxCell>
        <mxCell id="Rz6tWYdozI2A_UNbcyXa-82" value="Cierre del dia" style="html=1;overflow=block;blockSpacing=1;whiteSpace=wrap;ellipse;fontSize=13;fontColor=#ffffff;spacing=3.8;verticalAlign=middle;strokeOpacity=100;fillOpacity=100;rounded=1;absoluteArcSize=1;arcSize=9;fillColor=#000000;strokeWidth=NaN;lucidId=D0yfy7g9ur-5;" parent="WIyWlLk6GJQsqaUBKTNV-1" vertex="1">
          <mxGeometry x="1157" y="-1344" width="120" height="120" as="geometry" />
        </mxCell>
        <mxCell id="Rz6tWYdozI2A_UNbcyXa-83" value="Cierre del dia" style="html=1;overflow=block;blockSpacing=1;whiteSpace=wrap;ellipse;fontSize=13;fontColor=#ffffff;spacing=3.8;verticalAlign=middle;strokeOpacity=100;fillOpacity=100;rounded=1;absoluteArcSize=1;arcSize=9;fillColor=#000000;strokeWidth=NaN;lucidId=U0yfpN6~U5tX;" parent="WIyWlLk6GJQsqaUBKTNV-1" vertex="1">
          <mxGeometry x="1300" y="-370" width="120" height="120" as="geometry" />
        </mxCell>
        <mxCell id="Rz6tWYdozI2A_UNbcyXa-84" value="Saca a todos los vehículos y les cobra" style="html=1;overflow=block;blockSpacing=1;whiteSpace=wrap;fontSize=13;fontColor=#ffffff;spacing=3.8;verticalAlign=middle;strokeOpacity=100;fillOpacity=100;rounded=1;absoluteArcSize=1;arcSize=9;fillColor=#00290a;strokeWidth=2.3;lucidId=W0yfbK-nb7rr;" parent="WIyWlLk6GJQsqaUBKTNV-1" vertex="1">
          <mxGeometry x="1135" y="-130" width="180" height="60" as="geometry" />
        </mxCell>
        <mxCell id="Rz6tWYdozI2A_UNbcyXa-85" value="Da un reporte de todos los vehículos que estuvieron ese día.&#xa;Horas, montos pagados, total de lo cobrado ese día." style="html=1;overflow=block;blockSpacing=1;whiteSpace=wrap;fontSize=13;fontColor=#ffffff;spacing=3.8;verticalAlign=middle;strokeOpacity=100;fillOpacity=100;rounded=1;absoluteArcSize=1;arcSize=9;fillColor=#00290a;strokeWidth=2.3;lucidId=o1yf_DbydG5u;" parent="WIyWlLk6GJQsqaUBKTNV-1" vertex="1">
          <mxGeometry x="1375" y="-130" width="180" height="60" as="geometry" />
        </mxCell>
        <mxCell id="Rz6tWYdozI2A_UNbcyXa-86" value="" style="html=1;jettySize=18;whiteSpace=wrap;fontSize=13;strokeOpacity=100;strokeWidth=0.8;rounded=1;arcSize=12;edgeStyle=orthogonalEdgeStyle;startArrow=none;endArrow=block;endFill=1;exitX=0.5;exitY=1.003;exitPerimeter=0;entryX=0.492;entryY=-0.019;entryPerimeter=0;lucidId=e2yfbAL~omeE;" parent="WIyWlLk6GJQsqaUBKTNV-1" source="Rz6tWYdozI2A_UNbcyXa-83" target="Rz6tWYdozI2A_UNbcyXa-84" edge="1">
          <mxGeometry width="100" height="100" relative="1" as="geometry">
            <Array as="points" />
          </mxGeometry>
        </mxCell>
        <mxCell id="Rz6tWYdozI2A_UNbcyXa-87" value="" style="html=1;jettySize=18;whiteSpace=wrap;fontSize=13;strokeOpacity=100;strokeWidth=0.8;rounded=1;arcSize=12;edgeStyle=orthogonalEdgeStyle;startArrow=none;endArrow=block;endFill=1;exitX=0.5;exitY=1.003;exitPerimeter=0;entryX=0.5;entryY=-0.019;entryPerimeter=0;lucidId=j2yfPfHXAqlO;" parent="WIyWlLk6GJQsqaUBKTNV-1" source="Rz6tWYdozI2A_UNbcyXa-83" target="Rz6tWYdozI2A_UNbcyXa-85" edge="1">
          <mxGeometry width="100" height="100" relative="1" as="geometry">
            <Array as="points" />
          </mxGeometry>
        </mxCell>
        <mxCell id="Rz6tWYdozI2A_UNbcyXa-88" value="Salir" style="html=1;overflow=block;blockSpacing=1;whiteSpace=wrap;ellipse;fontSize=13;fontColor=#ffffff;spacing=3.8;verticalAlign=middle;strokeOpacity=100;fillOpacity=100;rounded=1;absoluteArcSize=1;arcSize=9;fillColor=#000000;strokeWidth=NaN;lucidId=Q2yf-YY70Kf4;" parent="WIyWlLk6GJQsqaUBKTNV-1" vertex="1">
          <mxGeometry x="1337" y="-1344" width="120" height="120" as="geometry" />
        </mxCell>
        <mxCell id="Rz6tWYdozI2A_UNbcyXa-89" value="Salir" style="html=1;overflow=block;blockSpacing=1;whiteSpace=wrap;ellipse;fontSize=13;fontColor=#ffffff;spacing=3.8;verticalAlign=middle;strokeOpacity=100;fillOpacity=100;rounded=1;absoluteArcSize=1;arcSize=9;fillColor=#000000;strokeWidth=NaN;lucidId=Y2yfKLZn56i1;" parent="WIyWlLk6GJQsqaUBKTNV-1" vertex="1">
          <mxGeometry x="1690" y="-368" width="120" height="120" as="geometry" />
        </mxCell>
        <mxCell id="Rz6tWYdozI2A_UNbcyXa-90" value="Sale del sistema." style="html=1;overflow=block;blockSpacing=1;whiteSpace=wrap;fontSize=13;fontColor=#ffffff;spacing=3.8;verticalAlign=middle;strokeOpacity=100;fillOpacity=100;rounded=1;absoluteArcSize=1;arcSize=9;fillColor=#00290a;strokeWidth=2.3;lucidId=32yf5MZ8cVas;" parent="WIyWlLk6GJQsqaUBKTNV-1" vertex="1">
          <mxGeometry x="1660" y="-129" width="180" height="60" as="geometry" />
        </mxCell>
        <mxCell id="Rz6tWYdozI2A_UNbcyXa-91" value="" style="html=1;jettySize=18;whiteSpace=wrap;fontSize=13;strokeOpacity=100;strokeWidth=0.8;rounded=1;arcSize=12;edgeStyle=orthogonalEdgeStyle;startArrow=none;endArrow=block;endFill=1;exitX=0.5;exitY=1.003;exitPerimeter=0;entryX=0.5;entryY=-0.019;entryPerimeter=0;lucidId=b3yf4GYpCKNp;" parent="WIyWlLk6GJQsqaUBKTNV-1" source="Rz6tWYdozI2A_UNbcyXa-89" target="Rz6tWYdozI2A_UNbcyXa-90" edge="1">
          <mxGeometry width="100" height="100" relative="1" as="geometry">
            <Array as="points" />
          </mxGeometry>
        </mxCell>
        <mxCell id="Rz6tWYdozI2A_UNbcyXa-92" value="Clases" style="html=1;overflow=block;blockSpacing=1;whiteSpace=wrap;ellipse;fontSize=13;fontColor=#ffffff;spacing=3.8;strokeOpacity=100;fillOpacity=100;rounded=1;absoluteArcSize=1;arcSize=9;fillColor=#250808;strokeWidth=NaN;lucidId=gizfvOg5nPUx;" parent="WIyWlLk6GJQsqaUBKTNV-1" vertex="1">
          <mxGeometry x="1675" y="-1539" width="120" height="120" as="geometry" />
        </mxCell>
        <mxCell id="Rz6tWYdozI2A_UNbcyXa-93" value="" style="html=1;jettySize=18;whiteSpace=wrap;fontSize=13;strokeOpacity=100;strokeWidth=0.8;rounded=1;arcSize=12;edgeStyle=orthogonalEdgeStyle;startArrow=none;endArrow=block;endFill=1;exitX=1.003;exitY=0.5;exitPerimeter=0;entryX=-0.003;entryY=0.5;entryPerimeter=0;lucidId=WlzfcEfTmQvX;" parent="WIyWlLk6GJQsqaUBKTNV-1" source="Rz6tWYdozI2A_UNbcyXa-92" target="Rz6tWYdozI2A_UNbcyXa-100" edge="1">
          <mxGeometry width="100" height="100" relative="1" as="geometry">
            <Array as="points" />
          </mxGeometry>
        </mxCell>
        <mxCell id="Rz6tWYdozI2A_UNbcyXa-94" value="" style="html=1;jettySize=18;whiteSpace=wrap;fontSize=13;strokeOpacity=100;strokeWidth=0.8;rounded=1;arcSize=12;edgeStyle=orthogonalEdgeStyle;startArrow=none;endArrow=block;endFill=1;exitX=1.003;exitY=0.5;exitPerimeter=0;entryX=-0.003;entryY=0.5;entryPerimeter=0;lucidId=ZlzfgBrOM4b1;" parent="WIyWlLk6GJQsqaUBKTNV-1" source="Rz6tWYdozI2A_UNbcyXa-92" target="Rz6tWYdozI2A_UNbcyXa-99" edge="1">
          <mxGeometry width="100" height="100" relative="1" as="geometry">
            <Array as="points" />
          </mxGeometry>
        </mxCell>
        <mxCell id="Rz6tWYdozI2A_UNbcyXa-95" value="" style="html=1;jettySize=18;whiteSpace=wrap;fontSize=13;strokeOpacity=100;strokeWidth=0.8;rounded=1;arcSize=12;edgeStyle=orthogonalEdgeStyle;startArrow=none;endArrow=block;endFill=1;exitX=1.003;exitY=0.5;exitPerimeter=0;entryX=-0.003;entryY=0.5;entryPerimeter=0;lucidId=3lzf.rNsemrZ;" parent="WIyWlLk6GJQsqaUBKTNV-1" source="Rz6tWYdozI2A_UNbcyXa-92" target="Rz6tWYdozI2A_UNbcyXa-98" edge="1">
          <mxGeometry width="100" height="100" relative="1" as="geometry">
            <Array as="points" />
          </mxGeometry>
        </mxCell>
        <mxCell id="Rz6tWYdozI2A_UNbcyXa-96" value="" style="html=1;jettySize=18;whiteSpace=wrap;fontSize=13;strokeOpacity=100;strokeWidth=0.8;rounded=1;arcSize=12;edgeStyle=orthogonalEdgeStyle;startArrow=none;endArrow=block;endFill=1;exitX=1.003;exitY=0.5;exitPerimeter=0;entryX=-0.003;entryY=0.5;entryPerimeter=0;lucidId=6lzf34CvSZgE;" parent="WIyWlLk6GJQsqaUBKTNV-1" source="Rz6tWYdozI2A_UNbcyXa-92" target="Rz6tWYdozI2A_UNbcyXa-101" edge="1">
          <mxGeometry width="100" height="100" relative="1" as="geometry">
            <Array as="points" />
          </mxGeometry>
        </mxCell>
        <mxCell id="Rz6tWYdozI2A_UNbcyXa-97" value="" style="html=1;jettySize=18;whiteSpace=wrap;fontSize=13;strokeOpacity=100;strokeWidth=0.8;rounded=1;arcSize=12;edgeStyle=orthogonalEdgeStyle;startArrow=none;endArrow=block;endFill=1;exitX=1.003;exitY=0.5;exitPerimeter=0;entryX=-0.003;entryY=0.5;entryPerimeter=0;lucidId=-lzfF-K808Ts;" parent="WIyWlLk6GJQsqaUBKTNV-1" source="Rz6tWYdozI2A_UNbcyXa-92" target="Rz6tWYdozI2A_UNbcyXa-102" edge="1">
          <mxGeometry width="100" height="100" relative="1" as="geometry">
            <Array as="points" />
          </mxGeometry>
        </mxCell>
        <mxCell id="Rz6tWYdozI2A_UNbcyXa-98" value="ParkingLot" style="html=1;overflow=block;blockSpacing=1;whiteSpace=wrap;ellipse;fontSize=23;fontColor=#ffffff;spacing=3.8;strokeOpacity=100;fillOpacity=100;rounded=1;absoluteArcSize=1;arcSize=9;fillColor=#250808;strokeWidth=NaN;lucidId=xmzfhw9W9_TN;" parent="WIyWlLk6GJQsqaUBKTNV-1" vertex="1">
          <mxGeometry x="1900" y="-2019" width="120" height="120" as="geometry" />
        </mxCell>
        <mxCell id="Rz6tWYdozI2A_UNbcyXa-99" value="Main" style="html=1;overflow=block;blockSpacing=1;whiteSpace=wrap;ellipse;fontSize=23.3;fontColor=#ffffff;spacing=3.8;strokeOpacity=100;fillOpacity=100;rounded=1;absoluteArcSize=1;arcSize=9;fillColor=#250808;strokeWidth=NaN;lucidId=enzfAsSnZ1Ub;" parent="WIyWlLk6GJQsqaUBKTNV-1" vertex="1">
          <mxGeometry x="1900" y="-1059" width="120" height="120" as="geometry" />
        </mxCell>
        <mxCell id="Rz6tWYdozI2A_UNbcyXa-100" value="Vehicles" style="html=1;overflow=block;blockSpacing=1;whiteSpace=wrap;ellipse;fontSize=23.3;fontColor=#ffffff;spacing=3.8;strokeOpacity=100;fillOpacity=100;rounded=1;absoluteArcSize=1;arcSize=9;fillColor=#250808;strokeWidth=NaN;lucidId=0nzfnHKFf5cn;" parent="WIyWlLk6GJQsqaUBKTNV-1" vertex="1">
          <mxGeometry x="1900" y="-1779" width="120" height="120" as="geometry" />
        </mxCell>
        <mxCell id="Rz6tWYdozI2A_UNbcyXa-101" value="Menu" style="html=1;overflow=block;blockSpacing=1;whiteSpace=wrap;ellipse;fontSize=23.3;fontColor=#ffffff;spacing=3.8;strokeOpacity=100;fillOpacity=100;rounded=1;absoluteArcSize=1;arcSize=9;fillColor=#250808;strokeWidth=NaN;lucidId=~nzfTBE-.SH1;" parent="WIyWlLk6GJQsqaUBKTNV-1" vertex="1">
          <mxGeometry x="1900" y="-1299" width="120" height="120" as="geometry" />
        </mxCell>
        <mxCell id="Rz6tWYdozI2A_UNbcyXa-102" value="VehicleFlow" style="html=1;overflow=block;blockSpacing=1;whiteSpace=wrap;ellipse;fontSize=13;fontColor=#ffffff;spacing=3.8;strokeOpacity=100;fillOpacity=100;rounded=1;absoluteArcSize=1;arcSize=9;fillColor=#250808;strokeWidth=NaN;lucidId=jozfl4BkYcpq;" parent="WIyWlLk6GJQsqaUBKTNV-1" vertex="1">
          <mxGeometry x="1900" y="-1539" width="120" height="120" as="geometry" />
        </mxCell>
        <mxCell id="Rz6tWYdozI2A_UNbcyXa-103" value="Spot[]&#xa;VehicleFlow[]" style="html=1;overflow=block;blockSpacing=1;whiteSpace=wrap;fontSize=23;fontColor=#ffffff;spacing=3.8;strokeOpacity=100;fillOpacity=100;rounded=1;absoluteArcSize=1;arcSize=9;fillColor=#250808;strokeWidth=NaN;lucidId=IyzfJqg4Dv-C;" parent="WIyWlLk6GJQsqaUBKTNV-1" vertex="1">
          <mxGeometry x="2140" y="-2018" width="240" height="209" as="geometry" />
        </mxCell>
        <mxCell id="Rz6tWYdozI2A_UNbcyXa-104" value="" style="html=1;jettySize=18;whiteSpace=wrap;fontSize=13;strokeOpacity=100;strokeWidth=0.8;rounded=1;arcSize=12;edgeStyle=orthogonalEdgeStyle;startArrow=none;endArrow=block;endFill=1;exitX=1.003;exitY=0.5;exitPerimeter=0;entryX=-0.002;entryY=0.284;entryPerimeter=0;lucidId=izzfX~vxeQar;" parent="WIyWlLk6GJQsqaUBKTNV-1" source="Rz6tWYdozI2A_UNbcyXa-98" target="Rz6tWYdozI2A_UNbcyXa-103" edge="1">
          <mxGeometry width="100" height="100" relative="1" as="geometry">
            <Array as="points" />
          </mxGeometry>
        </mxCell>
        <mxCell id="Rz6tWYdozI2A_UNbcyXa-105" value="App runs" style="html=1;overflow=block;blockSpacing=1;whiteSpace=wrap;fontSize=16.7;fontColor=#ffffff;spacing=3.8;strokeOpacity=0;fillOpacity=100;rounded=1;absoluteArcSize=1;arcSize=9;fillColor=#000000;strokeWidth=2.3;lucidId=M3Jf24sVI.t6;" parent="WIyWlLk6GJQsqaUBKTNV-1" vertex="1">
          <mxGeometry x="-2540" y="-1419" width="120" height="121" as="geometry" />
        </mxCell>
        <mxCell id="Rz6tWYdozI2A_UNbcyXa-106" value="" style="strokeColor=none;fillColor=none;whiteSpace=wrap;fontSize=13;fontColor=default;align=center;spacing=3.8;strokeOpacity=100;rounded=1;absoluteArcSize=1;arcSize=9;strokeWidth=NaN;html=1;" parent="WIyWlLk6GJQsqaUBKTNV-1" vertex="1">
          <mxGeometry x="-2337" y="-1419" width="225" height="120" as="geometry" />
        </mxCell>
        <mxCell id="Rz6tWYdozI2A_UNbcyXa-107" value="" style="shape=curlyBracket;rounded=1;flipH=1;whiteSpace=wrap;fontSize=13;fontColor=default;align=center;spacing=3.8;strokeOpacity=100;fillColor=#unset;strokeWidth=NaN;" parent="Rz6tWYdozI2A_UNbcyXa-106" vertex="1">
          <mxGeometry width="15" height="120" as="geometry" />
        </mxCell>
        <mxCell id="Rz6tWYdozI2A_UNbcyXa-108" value=" Se crea un nuevo parqueo, con los 35 espacios, se corre el menú y aparecerán las 7 opciones." style="strokeColor=none;fillColor=none;whiteSpace=wrap;fontSize=13;fontColor=default;align=center;spacing=3.8;strokeOpacity=100;rounded=1;absoluteArcSize=1;arcSize=9;strokeWidth=NaN;" parent="Rz6tWYdozI2A_UNbcyXa-106" vertex="1">
          <mxGeometry x="15" width="210" height="120" as="geometry" />
        </mxCell>
        <mxCell id="Rz6tWYdozI2A_UNbcyXa-109" value="2.Consultar Vehículo" style="html=1;overflow=block;blockSpacing=1;whiteSpace=wrap;fontSize=13;fontColor=#ffffff;spacing=3.8;strokeOpacity=100;fillOpacity=100;rounded=1;absoluteArcSize=1;arcSize=9;fillColor=#000000;strokeWidth=NaN;lucidId=g7JfC.Y8bF0C;" parent="WIyWlLk6GJQsqaUBKTNV-1" vertex="1">
          <mxGeometry x="-2900" y="-1164" width="120" height="90" as="geometry" />
        </mxCell>
        <mxCell id="Rz6tWYdozI2A_UNbcyXa-110" value="3.Salida de Vehículo " style="html=1;overflow=block;blockSpacing=1;whiteSpace=wrap;fontSize=13;fontColor=#ffffff;spacing=3.8;strokeOpacity=100;fillOpacity=100;rounded=1;absoluteArcSize=1;arcSize=9;fillColor=#000000;strokeWidth=NaN;lucidId=p7JfAeYHp0VU;" parent="WIyWlLk6GJQsqaUBKTNV-1" vertex="1">
          <mxGeometry x="-2720" y="-1164" width="120" height="90" as="geometry" />
        </mxCell>
        <mxCell id="Rz6tWYdozI2A_UNbcyXa-111" value="4.Consultar parqueo" style="html=1;overflow=block;blockSpacing=1;whiteSpace=wrap;rhombus;fontSize=13;fontColor=#ffffff;spacing=3.8;strokeOpacity=100;fillOpacity=100;rounded=1;absoluteArcSize=1;arcSize=9;fillColor=#000000;strokeWidth=NaN;lucidId=J7Jf8EjwR2QI;" parent="WIyWlLk6GJQsqaUBKTNV-1" vertex="1">
          <mxGeometry x="-2540" y="-1164" width="120" height="90" as="geometry" />
        </mxCell>
        <mxCell id="Rz6tWYdozI2A_UNbcyXa-112" value="5.Consultar historial" style="html=1;overflow=block;blockSpacing=1;whiteSpace=wrap;rhombus;fontSize=13;fontColor=#ffffff;spacing=3.8;strokeOpacity=100;fillOpacity=100;rounded=1;absoluteArcSize=1;arcSize=9;fillColor=#000000;strokeWidth=NaN;lucidId=87JfPVKNNKeq;" parent="WIyWlLk6GJQsqaUBKTNV-1" vertex="1">
          <mxGeometry x="-2360" y="-1164" width="120" height="90" as="geometry" />
        </mxCell>
        <mxCell id="Rz6tWYdozI2A_UNbcyXa-113" value="6.Cierre del día" style="html=1;overflow=block;blockSpacing=1;whiteSpace=wrap;rhombus;fontSize=13;fontColor=#ffffff;spacing=3.8;strokeOpacity=100;fillOpacity=100;rounded=1;absoluteArcSize=1;arcSize=9;fillColor=#000000;strokeWidth=NaN;lucidId=CmKfzqg_Lo_w;" parent="WIyWlLk6GJQsqaUBKTNV-1" vertex="1">
          <mxGeometry x="-2180" y="-1164" width="120" height="90" as="geometry" />
        </mxCell>
        <mxCell id="Rz6tWYdozI2A_UNbcyXa-114" value="7. Salir" style="html=1;overflow=block;blockSpacing=1;whiteSpace=wrap;rhombus;fontSize=13;fontColor=#ffffff;spacing=3.8;strokeOpacity=100;fillOpacity=100;rounded=1;absoluteArcSize=1;arcSize=9;fillColor=#000000;strokeWidth=NaN;lucidId=VmKff.ufwl50;" parent="WIyWlLk6GJQsqaUBKTNV-1" vertex="1">
          <mxGeometry x="-2000" y="-1164" width="120" height="90" as="geometry" />
        </mxCell>
        <mxCell id="Rz6tWYdozI2A_UNbcyXa-115" value="" style="html=1;jettySize=18;whiteSpace=wrap;fontSize=13;strokeOpacity=100;strokeWidth=0.8;rounded=1;arcSize=12;edgeStyle=orthogonalEdgeStyle;startArrow=none;endArrow=block;endFill=1;exitX=1;exitY=0.5;exitPerimeter=0;entryX=0.053;entryY=0.503;entryPerimeter=0;lucidId=WoKfZ.41_nZv;" parent="WIyWlLk6GJQsqaUBKTNV-1" source="Rz6tWYdozI2A_UNbcyXa-105" target="Rz6tWYdozI2A_UNbcyXa-106" edge="1">
          <mxGeometry width="100" height="100" relative="1" as="geometry">
            <Array as="points" />
          </mxGeometry>
        </mxCell>
        <mxCell id="Rz6tWYdozI2A_UNbcyXa-116" value="" style="html=1;jettySize=18;whiteSpace=wrap;fontSize=13;strokeOpacity=100;strokeWidth=0.8;rounded=1;arcSize=12;edgeStyle=orthogonalEdgeStyle;startArrow=none;endArrow=block;endFill=1;exitX=0.5;exitY=1;exitPerimeter=0;entryX=0.5;entryY=-0.004;entryPerimeter=0;lucidId=KpKfQ93.AcGe;" parent="WIyWlLk6GJQsqaUBKTNV-1" source="Rz6tWYdozI2A_UNbcyXa-105" target="Rz6tWYdozI2A_UNbcyXa-130" edge="1">
          <mxGeometry width="100" height="100" relative="1" as="geometry">
            <Array as="points" />
          </mxGeometry>
        </mxCell>
        <mxCell id="Rz6tWYdozI2A_UNbcyXa-117" value="1" style="text;html=1;resizable=0;labelBackgroundColor=default;align=center;verticalAlign=middle;fontStyle=1;fontColor=default;fontSize=13.3;" parent="Rz6tWYdozI2A_UNbcyXa-116" vertex="1">
          <mxGeometry x="0.860579194691115" relative="1" as="geometry" />
        </mxCell>
        <mxCell id="Rz6tWYdozI2A_UNbcyXa-118" value="" style="html=1;jettySize=18;whiteSpace=wrap;fontSize=13;strokeOpacity=100;strokeWidth=0.8;rounded=1;arcSize=12;edgeStyle=orthogonalEdgeStyle;startArrow=none;endArrow=block;endFill=1;exitX=0.5;exitY=1;exitPerimeter=0;entryX=0.5;entryY=-0.004;entryPerimeter=0;lucidId=XpKfTjNgfVVA;" parent="WIyWlLk6GJQsqaUBKTNV-1" source="Rz6tWYdozI2A_UNbcyXa-105" target="Rz6tWYdozI2A_UNbcyXa-109" edge="1">
          <mxGeometry width="100" height="100" relative="1" as="geometry">
            <Array as="points" />
          </mxGeometry>
        </mxCell>
        <mxCell id="Rz6tWYdozI2A_UNbcyXa-119" value="2" style="text;html=1;resizable=0;labelBackgroundColor=default;align=center;verticalAlign=middle;fontStyle=1;fontColor=default;fontSize=13.3;" parent="Rz6tWYdozI2A_UNbcyXa-118" vertex="1">
          <mxGeometry x="0.8099605095469633" relative="1" as="geometry" />
        </mxCell>
        <mxCell id="Rz6tWYdozI2A_UNbcyXa-120" value="" style="html=1;jettySize=18;whiteSpace=wrap;fontSize=13;strokeOpacity=100;strokeWidth=0.8;rounded=1;arcSize=12;edgeStyle=orthogonalEdgeStyle;startArrow=none;endArrow=block;endFill=1;exitX=0.5;exitY=1;exitPerimeter=0;entryX=0.5;entryY=-0.004;entryPerimeter=0;lucidId=1pKfFnyby2Uh;" parent="WIyWlLk6GJQsqaUBKTNV-1" source="Rz6tWYdozI2A_UNbcyXa-105" target="Rz6tWYdozI2A_UNbcyXa-110" edge="1">
          <mxGeometry width="100" height="100" relative="1" as="geometry">
            <Array as="points" />
          </mxGeometry>
        </mxCell>
        <mxCell id="Rz6tWYdozI2A_UNbcyXa-121" value="3" style="text;html=1;resizable=0;labelBackgroundColor=default;align=center;verticalAlign=middle;fontStyle=1;fontColor=default;fontSize=13.3;" parent="Rz6tWYdozI2A_UNbcyXa-120" vertex="1">
          <mxGeometry x="0.7086763857589364" relative="1" as="geometry" />
        </mxCell>
        <mxCell id="Rz6tWYdozI2A_UNbcyXa-122" value="" style="html=1;jettySize=18;whiteSpace=wrap;fontSize=13;strokeOpacity=100;strokeWidth=0.8;rounded=1;arcSize=12;edgeStyle=orthogonalEdgeStyle;startArrow=none;endArrow=block;endFill=1;exitX=0.5;exitY=1;exitPerimeter=0;entryX=0.5;entryY=0.012;entryPerimeter=0;lucidId=gqKfLcbbOz9F;" parent="WIyWlLk6GJQsqaUBKTNV-1" source="Rz6tWYdozI2A_UNbcyXa-105" target="Rz6tWYdozI2A_UNbcyXa-111" edge="1">
          <mxGeometry width="100" height="100" relative="1" as="geometry">
            <Array as="points" />
          </mxGeometry>
        </mxCell>
        <mxCell id="Rz6tWYdozI2A_UNbcyXa-123" value="4" style="text;html=1;resizable=0;labelBackgroundColor=default;align=center;verticalAlign=middle;fontStyle=1;fontColor=default;fontSize=13.3;" parent="Rz6tWYdozI2A_UNbcyXa-122" vertex="1">
          <mxGeometry x="0.31762258811638455" relative="1" as="geometry" />
        </mxCell>
        <mxCell id="Rz6tWYdozI2A_UNbcyXa-124" value="" style="html=1;jettySize=18;whiteSpace=wrap;fontSize=13;strokeOpacity=100;strokeWidth=0.8;rounded=1;arcSize=12;edgeStyle=orthogonalEdgeStyle;startArrow=none;endArrow=block;endFill=1;exitX=0.5;exitY=1;exitPerimeter=0;entryX=0.5;entryY=0.012;entryPerimeter=0;lucidId=mqKfSX2Nte2v;" parent="WIyWlLk6GJQsqaUBKTNV-1" source="Rz6tWYdozI2A_UNbcyXa-105" target="Rz6tWYdozI2A_UNbcyXa-112" edge="1">
          <mxGeometry width="100" height="100" relative="1" as="geometry">
            <Array as="points" />
          </mxGeometry>
        </mxCell>
        <mxCell id="Rz6tWYdozI2A_UNbcyXa-125" value="5" style="text;html=1;resizable=0;labelBackgroundColor=default;align=center;verticalAlign=middle;fontStyle=1;fontColor=default;fontSize=13.3;" parent="Rz6tWYdozI2A_UNbcyXa-124" vertex="1">
          <mxGeometry x="0.7065890598351012" relative="1" as="geometry" />
        </mxCell>
        <mxCell id="Rz6tWYdozI2A_UNbcyXa-126" value="" style="html=1;jettySize=18;whiteSpace=wrap;fontSize=13;strokeOpacity=100;strokeWidth=0.8;rounded=1;arcSize=12;edgeStyle=orthogonalEdgeStyle;startArrow=none;endArrow=block;endFill=1;exitX=0.5;exitY=1;exitPerimeter=0;entryX=0.5;entryY=0.012;entryPerimeter=0;lucidId=QqKfcJ3Cj_t0;" parent="WIyWlLk6GJQsqaUBKTNV-1" source="Rz6tWYdozI2A_UNbcyXa-105" target="Rz6tWYdozI2A_UNbcyXa-113" edge="1">
          <mxGeometry width="100" height="100" relative="1" as="geometry">
            <Array as="points" />
          </mxGeometry>
        </mxCell>
        <mxCell id="Rz6tWYdozI2A_UNbcyXa-127" value="6" style="text;html=1;resizable=0;labelBackgroundColor=default;align=center;verticalAlign=middle;fontStyle=1;fontColor=default;fontSize=13.3;" parent="Rz6tWYdozI2A_UNbcyXa-126" vertex="1">
          <mxGeometry x="0.8126028766785458" relative="1" as="geometry" />
        </mxCell>
        <mxCell id="Rz6tWYdozI2A_UNbcyXa-128" value="" style="html=1;jettySize=18;whiteSpace=wrap;fontSize=13;strokeOpacity=100;strokeWidth=0.8;rounded=1;arcSize=12;edgeStyle=orthogonalEdgeStyle;startArrow=none;endArrow=block;endFill=1;exitX=0.5;exitY=1;exitPerimeter=0;entryX=0.5;entryY=0.012;entryPerimeter=0;lucidId=grKfHdo9HLmH;" parent="WIyWlLk6GJQsqaUBKTNV-1" source="Rz6tWYdozI2A_UNbcyXa-105" target="Rz6tWYdozI2A_UNbcyXa-114" edge="1">
          <mxGeometry width="100" height="100" relative="1" as="geometry">
            <Array as="points" />
          </mxGeometry>
        </mxCell>
        <mxCell id="Rz6tWYdozI2A_UNbcyXa-129" value="7" style="text;html=1;resizable=0;labelBackgroundColor=default;align=center;verticalAlign=middle;fontStyle=1;fontColor=default;fontSize=13.3;" parent="Rz6tWYdozI2A_UNbcyXa-128" vertex="1">
          <mxGeometry x="0.8685076328476355" relative="1" as="geometry" />
        </mxCell>
        <mxCell id="Rz6tWYdozI2A_UNbcyXa-130" value="1.Ingresar vehículo" style="html=1;overflow=block;blockSpacing=1;whiteSpace=wrap;fontSize=16.7;fontColor=#ffffff;spacing=9;verticalAlign=middle;strokeOpacity=100;fillOpacity=100;rounded=1;absoluteArcSize=1;arcSize=9;fillColor=#000000;strokeWidth=NaN;lucidId=0uKfO1RpURHh;" parent="WIyWlLk6GJQsqaUBKTNV-1" vertex="1">
          <mxGeometry x="-3080" y="-1164" width="120" height="90" as="geometry" />
        </mxCell>
        <mxCell id="Rz6tWYdozI2A_UNbcyXa-131" value="" style="html=1;jettySize=18;whiteSpace=wrap;fontSize=13;strokeOpacity=100;strokeWidth=0.8;rounded=1;arcSize=12;edgeStyle=orthogonalEdgeStyle;startArrow=none;endArrow=block;endFill=1;exitX=-0.003;exitY=0.5;exitPerimeter=0;entryX=0.5;entryY=1.004;entryPerimeter=0;lucidId=tvKf0sL.NQ3e;" parent="WIyWlLk6GJQsqaUBKTNV-1" source="Rz6tWYdozI2A_UNbcyXa-130" target="Rz6tWYdozI2A_UNbcyXa-132" edge="1">
          <mxGeometry width="100" height="100" relative="1" as="geometry">
            <Array as="points" />
          </mxGeometry>
        </mxCell>
        <mxCell id="Rz6tWYdozI2A_UNbcyXa-132" value="Introducir el tipo de vehículo" style="html=1;overflow=block;blockSpacing=1;whiteSpace=wrap;shape=trapezoid;perimeter=trapezoidPerimeter;anchorPointDirection=0;flipV=1;fontSize=16.7;fontColor=#ffffff;spacing=3.8;strokeOpacity=100;fillOpacity=100;rounded=1;absoluteArcSize=1;arcSize=9;fillColor=#000000;strokeWidth=NaN;lucidId=CvKftpUXlqHk;" parent="WIyWlLk6GJQsqaUBKTNV-1" vertex="1">
          <mxGeometry x="-4280" y="-1044" width="120" height="90" as="geometry" />
        </mxCell>
        <mxCell id="Rz6tWYdozI2A_UNbcyXa-133" value="Comprobar si es un tipo válido" style="html=1;overflow=block;blockSpacing=1;whiteSpace=wrap;rhombus;fontSize=13;fontColor=#ffffff;spacing=3.8;strokeOpacity=100;fillOpacity=100;rounded=1;absoluteArcSize=1;arcSize=9;fillColor=#000000;strokeWidth=NaN;lucidId=_vKfczf1uZrq;" parent="WIyWlLk6GJQsqaUBKTNV-1" vertex="1">
          <mxGeometry x="-4280" y="-909" width="120" height="90" as="geometry" />
        </mxCell>
        <mxCell id="Rz6tWYdozI2A_UNbcyXa-134" value="" style="html=1;jettySize=18;whiteSpace=wrap;fontSize=13.3;fontColor=default;fontStyle=1;strokeOpacity=100;strokeWidth=0.8;rounded=1;arcSize=12;edgeStyle=orthogonalEdgeStyle;startArrow=none;endArrow=block;endFill=1;exitX=0.016;exitY=0.5;exitPerimeter=0;entryX=0.5;entryY=1.004;entryPerimeter=0;lucidId=ywKf8EUZL0VP;" parent="WIyWlLk6GJQsqaUBKTNV-1" source="Rz6tWYdozI2A_UNbcyXa-133" target="Rz6tWYdozI2A_UNbcyXa-140" edge="1">
          <mxGeometry width="100" height="100" relative="1" as="geometry">
            <Array as="points" />
          </mxGeometry>
        </mxCell>
        <mxCell id="Rz6tWYdozI2A_UNbcyXa-135" value="Yes" style="text;html=1;resizable=0;labelBackgroundColor=default;align=center;verticalAlign=middle;fontStyle=1;fontColor=default;fontSize=13.3;" parent="Rz6tWYdozI2A_UNbcyXa-134" vertex="1">
          <mxGeometry relative="1" as="geometry" />
        </mxCell>
        <mxCell id="Rz6tWYdozI2A_UNbcyXa-136" value="" style="html=1;jettySize=18;whiteSpace=wrap;fontSize=13;strokeOpacity=100;strokeWidth=0.8;rounded=1;arcSize=12;edgeStyle=orthogonalEdgeStyle;startArrow=none;endArrow=block;endFill=1;exitX=0.5;exitY=-0.0040000000000000036;exitPerimeter=0;entryX=0.5;entryY=0.012;entryPerimeter=0;lucidId=HwKfLWKhsF9p;" parent="WIyWlLk6GJQsqaUBKTNV-1" source="Rz6tWYdozI2A_UNbcyXa-132" target="Rz6tWYdozI2A_UNbcyXa-133" edge="1">
          <mxGeometry width="100" height="100" relative="1" as="geometry">
            <Array as="points" />
          </mxGeometry>
        </mxCell>
        <mxCell id="Rz6tWYdozI2A_UNbcyXa-137" value="" style="html=1;jettySize=18;whiteSpace=wrap;fontSize=13.3;fontColor=default;fontStyle=1;strokeOpacity=100;strokeWidth=0.8;rounded=1;arcSize=12;edgeStyle=orthogonalEdgeStyle;startArrow=none;endArrow=block;endFill=1;exitX=0.984;exitY=0.5;exitPerimeter=0;entryX=0.5;entryY=-0.003;entryPerimeter=0;lucidId=dzKfI2t6zRom;" parent="WIyWlLk6GJQsqaUBKTNV-1" source="Rz6tWYdozI2A_UNbcyXa-133" target="Rz6tWYdozI2A_UNbcyXa-139" edge="1">
          <mxGeometry width="100" height="100" relative="1" as="geometry">
            <Array as="points" />
          </mxGeometry>
        </mxCell>
        <mxCell id="Rz6tWYdozI2A_UNbcyXa-138" value="No" style="text;html=1;resizable=0;labelBackgroundColor=default;align=center;verticalAlign=middle;fontStyle=1;fontColor=default;fontSize=13.3;" parent="Rz6tWYdozI2A_UNbcyXa-137" vertex="1">
          <mxGeometry relative="1" as="geometry" />
        </mxCell>
        <mxCell id="Rz6tWYdozI2A_UNbcyXa-139" value="Mensaje, &quot;Tipo inválido, volviento al menú o dejar que intente de nuevo&quot;" style="html=1;overflow=block;blockSpacing=1;whiteSpace=wrap;fontSize=13;fontColor=#ffffff;spacing=9;strokeOpacity=100;fillOpacity=100;rounded=1;absoluteArcSize=1;arcSize=9;fillColor=#000000;strokeWidth=NaN;lucidId=3zKfWfLXVUtO;" parent="WIyWlLk6GJQsqaUBKTNV-1" vertex="1">
          <mxGeometry x="-4100" y="-729" width="120" height="115" as="geometry" />
        </mxCell>
        <mxCell id="Rz6tWYdozI2A_UNbcyXa-140" value="Introducir la placa o descripción" style="html=1;overflow=block;blockSpacing=1;whiteSpace=wrap;shape=trapezoid;perimeter=trapezoidPerimeter;anchorPointDirection=0;flipV=1;fontSize=13;fontColor=#ffffff;spacing=3.8;strokeOpacity=100;fillOpacity=100;rounded=1;absoluteArcSize=1;arcSize=9;fillColor=#000000;strokeWidth=NaN;lucidId=8BKfa1WjYurB;" parent="WIyWlLk6GJQsqaUBKTNV-1" vertex="1">
          <mxGeometry x="-4460" y="-729" width="120" height="90" as="geometry" />
        </mxCell>
        <mxCell id="Rz6tWYdozI2A_UNbcyXa-141" value="&quot;Placa: &quot;" style="html=1;overflow=block;blockSpacing=1;whiteSpace=wrap;fontSize=16.7;fontColor=#ffffff;spacing=9;strokeOpacity=100;fillOpacity=100;rounded=1;absoluteArcSize=1;arcSize=9;fillColor=#000000;strokeWidth=NaN;lucidId=lWKfJNcK_FIQ;" parent="WIyWlLk6GJQsqaUBKTNV-1" vertex="1">
          <mxGeometry x="-4580" y="-593" width="120" height="90" as="geometry" />
        </mxCell>
        <mxCell id="Rz6tWYdozI2A_UNbcyXa-142" value="" style="html=1;jettySize=18;whiteSpace=wrap;fontSize=13;strokeOpacity=100;strokeWidth=0.8;rounded=1;arcSize=12;edgeStyle=orthogonalEdgeStyle;startArrow=none;endArrow=block;endFill=1;exitX=0.097;exitY=0.5;exitPerimeter=0;entryX=0.5;entryY=-0.004;entryPerimeter=0;lucidId=nWKflx5W6Bjt;" parent="WIyWlLk6GJQsqaUBKTNV-1" source="Rz6tWYdozI2A_UNbcyXa-140" target="Rz6tWYdozI2A_UNbcyXa-141" edge="1">
          <mxGeometry width="100" height="100" relative="1" as="geometry">
            <Array as="points" />
          </mxGeometry>
        </mxCell>
        <mxCell id="Rz6tWYdozI2A_UNbcyXa-143" value="Si es vehículo/moto" style="text;html=1;resizable=0;labelBackgroundColor=default;align=center;verticalAlign=middle;fontStyle=1;fontColor=default;fontSize=13.3;" parent="Rz6tWYdozI2A_UNbcyXa-142" vertex="1">
          <mxGeometry x="0.30568207175867146" relative="1" as="geometry" />
        </mxCell>
        <mxCell id="Rz6tWYdozI2A_UNbcyXa-144" value="&quot;Descripción: &quot;" style="html=1;overflow=block;blockSpacing=1;whiteSpace=wrap;fontSize=13;fontColor=#ffffff;spacing=9;strokeOpacity=100;fillOpacity=100;rounded=1;absoluteArcSize=1;arcSize=9;fillColor=#000000;strokeWidth=NaN;lucidId=WWKfCzdmYo.q;" parent="WIyWlLk6GJQsqaUBKTNV-1" vertex="1">
          <mxGeometry x="-4340" y="-593" width="120" height="90" as="geometry" />
        </mxCell>
        <mxCell id="Rz6tWYdozI2A_UNbcyXa-145" value="" style="html=1;jettySize=18;whiteSpace=wrap;fontSize=13;strokeOpacity=100;strokeWidth=0.8;rounded=1;arcSize=12;edgeStyle=orthogonalEdgeStyle;startArrow=none;endArrow=block;endFill=1;exitX=0.903;exitY=0.5;exitPerimeter=0;entryX=0.525;entryY=-0.004;entryPerimeter=0;lucidId=2WKf8POzxDbb;" parent="WIyWlLk6GJQsqaUBKTNV-1" source="Rz6tWYdozI2A_UNbcyXa-140" target="Rz6tWYdozI2A_UNbcyXa-144" edge="1">
          <mxGeometry width="100" height="100" relative="1" as="geometry">
            <Array as="points" />
          </mxGeometry>
        </mxCell>
        <mxCell id="Rz6tWYdozI2A_UNbcyXa-146" value="Si es bici" style="text;html=1;resizable=0;labelBackgroundColor=default;align=center;verticalAlign=middle;fontStyle=1;fontColor=default;fontSize=13.3;" parent="Rz6tWYdozI2A_UNbcyXa-145" vertex="1">
          <mxGeometry x="0.37352980149052906" relative="1" as="geometry" />
        </mxCell>
        <mxCell id="Rz6tWYdozI2A_UNbcyXa-147" value="Comprobar si está en el parqueo" style="html=1;overflow=block;blockSpacing=1;whiteSpace=wrap;rhombus;fontSize=13;fontColor=#ffffff;spacing=3.8;strokeOpacity=100;fillOpacity=100;rounded=1;absoluteArcSize=1;arcSize=9;fillColor=#000000;strokeWidth=NaN;lucidId=S0KfJ9bNzed_;" parent="WIyWlLk6GJQsqaUBKTNV-1" vertex="1">
          <mxGeometry x="-4580" y="-294" width="120" height="90" as="geometry" />
        </mxCell>
        <mxCell id="Rz6tWYdozI2A_UNbcyXa-148" value="" style="html=1;jettySize=18;whiteSpace=wrap;fontSize=13.3;fontColor=#333333;fontStyle=1;strokeOpacity=100;strokeWidth=0.8;rounded=1;arcSize=12;edgeStyle=orthogonalEdgeStyle;startArrow=none;endArrow=block;endFill=1;exitX=0.016;exitY=0.5;exitPerimeter=0;entryX=1.003;entryY=0.5;entryPerimeter=0;lucidId=f1KfQiaO5SKO;" parent="WIyWlLk6GJQsqaUBKTNV-1" source="Rz6tWYdozI2A_UNbcyXa-147" target="Rz6tWYdozI2A_UNbcyXa-157" edge="1">
          <mxGeometry width="100" height="100" relative="1" as="geometry">
            <Array as="points" />
          </mxGeometry>
        </mxCell>
        <mxCell id="Rz6tWYdozI2A_UNbcyXa-149" value="Yes" style="text;html=1;resizable=0;labelBackgroundColor=default;align=center;verticalAlign=middle;fontStyle=1;fontColor=#333333;fontSize=13.3;" parent="Rz6tWYdozI2A_UNbcyXa-148" vertex="1">
          <mxGeometry relative="1" as="geometry" />
        </mxCell>
        <mxCell id="Rz6tWYdozI2A_UNbcyXa-150" value="" style="html=1;jettySize=18;whiteSpace=wrap;fontSize=13;strokeOpacity=100;strokeWidth=0.8;rounded=1;arcSize=12;edgeStyle=orthogonalEdgeStyle;startArrow=none;endArrow=block;endFill=1;exitX=1.003;exitY=0.5;exitPerimeter=0;entryX=0.903;entryY=0.5;entryPerimeter=0;lucidId=-jLfXHympHId;" parent="WIyWlLk6GJQsqaUBKTNV-1" source="Rz6tWYdozI2A_UNbcyXa-139" target="Rz6tWYdozI2A_UNbcyXa-132" edge="1">
          <mxGeometry width="100" height="100" relative="1" as="geometry">
            <Array as="points">
              <mxPoint x="-3965" y="-671" />
              <mxPoint x="-3965" y="-999" />
            </Array>
          </mxGeometry>
        </mxCell>
        <mxCell id="Rz6tWYdozI2A_UNbcyXa-151" value="Validar la placa" style="html=1;overflow=block;blockSpacing=1;whiteSpace=wrap;rhombus;fontSize=13;fontColor=#ffffff;spacing=3.8;strokeOpacity=100;fillOpacity=100;rounded=1;absoluteArcSize=1;arcSize=9;fillColor=#000000;strokeWidth=NaN;lucidId=KkLfCMMvmCd2;" parent="WIyWlLk6GJQsqaUBKTNV-1" vertex="1">
          <mxGeometry x="-4580" y="-444" width="120" height="90" as="geometry" />
        </mxCell>
        <mxCell id="Rz6tWYdozI2A_UNbcyXa-152" value="" style="html=1;jettySize=18;whiteSpace=wrap;fontSize=13;strokeOpacity=100;strokeWidth=0.8;rounded=1;arcSize=12;edgeStyle=orthogonalEdgeStyle;startArrow=none;endArrow=block;endFill=1;exitX=0.5;exitY=1.004;exitPerimeter=0;entryX=0.5;entryY=0.012;entryPerimeter=0;lucidId=TkLf8g~uVYNc;" parent="WIyWlLk6GJQsqaUBKTNV-1" source="Rz6tWYdozI2A_UNbcyXa-141" target="Rz6tWYdozI2A_UNbcyXa-151" edge="1">
          <mxGeometry width="100" height="100" relative="1" as="geometry">
            <Array as="points" />
          </mxGeometry>
        </mxCell>
        <mxCell id="Rz6tWYdozI2A_UNbcyXa-153" value="" style="html=1;jettySize=18;whiteSpace=wrap;fontSize=13.3;fontColor=#333333;fontStyle=1;strokeOpacity=100;strokeWidth=0.8;rounded=1;arcSize=12;edgeStyle=orthogonalEdgeStyle;startArrow=none;endArrow=block;endFill=1;exitX=0.5;exitY=0.988;exitPerimeter=0;entryX=0.5;entryY=0.012;entryPerimeter=0;lucidId=ZkLf6s3EIr5E;" parent="WIyWlLk6GJQsqaUBKTNV-1" source="Rz6tWYdozI2A_UNbcyXa-151" target="Rz6tWYdozI2A_UNbcyXa-147" edge="1">
          <mxGeometry width="100" height="100" relative="1" as="geometry">
            <Array as="points" />
          </mxGeometry>
        </mxCell>
        <mxCell id="Rz6tWYdozI2A_UNbcyXa-154" value="Yes" style="text;html=1;resizable=0;labelBackgroundColor=default;align=center;verticalAlign=middle;fontStyle=1;fontColor=#333333;fontSize=13.3;" parent="Rz6tWYdozI2A_UNbcyXa-153" vertex="1">
          <mxGeometry relative="1" as="geometry" />
        </mxCell>
        <mxCell id="Rz6tWYdozI2A_UNbcyXa-155" value="" style="html=1;jettySize=18;whiteSpace=wrap;fontSize=13.3;fontColor=#333333;fontStyle=1;strokeOpacity=100;strokeWidth=0.8;rounded=1;arcSize=12;edgeStyle=orthogonalEdgeStyle;startArrow=none;endArrow=block;endFill=1;exitX=0.016;exitY=0.5;exitPerimeter=0;entryX=-0.003;entryY=0.5;entryPerimeter=0;lucidId=xlLf_LS9Hvwg;" parent="WIyWlLk6GJQsqaUBKTNV-1" source="Rz6tWYdozI2A_UNbcyXa-151" target="Rz6tWYdozI2A_UNbcyXa-141" edge="1">
          <mxGeometry width="100" height="100" relative="1" as="geometry">
            <Array as="points" />
          </mxGeometry>
        </mxCell>
        <mxCell id="Rz6tWYdozI2A_UNbcyXa-156" value="No" style="text;html=1;resizable=0;labelBackgroundColor=default;align=center;verticalAlign=middle;fontStyle=1;fontColor=#333333;fontSize=13.3;" parent="Rz6tWYdozI2A_UNbcyXa-155" vertex="1">
          <mxGeometry relative="1" as="geometry" />
        </mxCell>
        <mxCell id="Rz6tWYdozI2A_UNbcyXa-157" value="No permite la entrada de ese vehículo" style="html=1;overflow=block;blockSpacing=1;whiteSpace=wrap;fontSize=13;fontColor=#ffffff;spacing=9;strokeOpacity=100;fillOpacity=100;rounded=1;absoluteArcSize=1;arcSize=9;fillColor=#000000;strokeWidth=NaN;lucidId=4oLfYJFBN88~;" parent="WIyWlLk6GJQsqaUBKTNV-1" vertex="1">
          <mxGeometry x="-4805" y="-279" width="120" height="60" as="geometry" />
        </mxCell>
        <mxCell id="Rz6tWYdozI2A_UNbcyXa-162" value="" style="html=1;jettySize=18;whiteSpace=wrap;fontSize=13.3;fontColor=#333333;fontStyle=1;strokeOpacity=100;strokeWidth=0.8;rounded=1;arcSize=12;edgeStyle=orthogonalEdgeStyle;startArrow=none;endArrow=block;endFill=1;exitX=0.984;exitY=0.5;exitPerimeter=0;entryX=0.016;entryY=0.5;entryPerimeter=0;lucidId=rvLf0l6UU7ms;" parent="WIyWlLk6GJQsqaUBKTNV-1" source="Rz6tWYdozI2A_UNbcyXa-147" target="Rz6tWYdozI2A_UNbcyXa-164" edge="1">
          <mxGeometry width="100" height="100" relative="1" as="geometry">
            <Array as="points" />
          </mxGeometry>
        </mxCell>
        <mxCell id="Rz6tWYdozI2A_UNbcyXa-163" value="No" style="text;html=1;resizable=0;labelBackgroundColor=default;align=center;verticalAlign=middle;fontStyle=1;fontColor=#333333;fontSize=13.3;" parent="Rz6tWYdozI2A_UNbcyXa-162" vertex="1">
          <mxGeometry relative="1" as="geometry" />
        </mxCell>
        <mxCell id="Rz6tWYdozI2A_UNbcyXa-164" value="Validar espacios" style="html=1;overflow=block;blockSpacing=1;whiteSpace=wrap;rhombus;fontSize=13;fontColor=#ffffff;spacing=3.8;strokeOpacity=100;fillOpacity=100;rounded=1;absoluteArcSize=1;arcSize=9;fillColor=#000000;strokeWidth=NaN;lucidId=QyLfYRGvUljy;" parent="WIyWlLk6GJQsqaUBKTNV-1" vertex="1">
          <mxGeometry x="-4340" y="-294" width="120" height="90" as="geometry" />
        </mxCell>
        <mxCell id="Rz6tWYdozI2A_UNbcyXa-165" value="" style="html=1;jettySize=18;whiteSpace=wrap;fontSize=13;strokeOpacity=100;strokeWidth=0.8;rounded=1;arcSize=12;edgeStyle=orthogonalEdgeStyle;startArrow=none;endArrow=block;endFill=1;exitX=0.5;exitY=1.004;exitPerimeter=0;entryX=0.5;entryY=0.012;entryPerimeter=0;lucidId=EzLfVPFMrwDP;" parent="WIyWlLk6GJQsqaUBKTNV-1" source="Rz6tWYdozI2A_UNbcyXa-144" target="Rz6tWYdozI2A_UNbcyXa-164" edge="1">
          <mxGeometry width="100" height="100" relative="1" as="geometry">
            <Array as="points" />
          </mxGeometry>
        </mxCell>
        <mxCell id="Rz6tWYdozI2A_UNbcyXa-166" value="" style="html=1;jettySize=18;whiteSpace=wrap;fontSize=13.3;fontColor=#333333;fontStyle=1;strokeOpacity=100;strokeWidth=0.8;rounded=1;arcSize=12;edgeStyle=orthogonalEdgeStyle;startArrow=none;endArrow=block;endFill=1;exitX=0.5;exitY=0.988;exitPerimeter=0;entryX=0.5;entryY=-0.004;entryPerimeter=0;lucidId=tALfqdlP2ZEB;" parent="WIyWlLk6GJQsqaUBKTNV-1" source="Rz6tWYdozI2A_UNbcyXa-164" target="Rz6tWYdozI2A_UNbcyXa-168" edge="1">
          <mxGeometry width="100" height="100" relative="1" as="geometry">
            <Array as="points" />
          </mxGeometry>
        </mxCell>
        <mxCell id="Rz6tWYdozI2A_UNbcyXa-167" value="Yes" style="text;html=1;resizable=0;labelBackgroundColor=default;align=center;verticalAlign=middle;fontStyle=1;fontColor=#333333;fontSize=13.3;" parent="Rz6tWYdozI2A_UNbcyXa-166" vertex="1">
          <mxGeometry relative="1" as="geometry" />
        </mxCell>
        <mxCell id="Rz6tWYdozI2A_UNbcyXa-168" value="Asignar campo" style="html=1;overflow=block;blockSpacing=1;whiteSpace=wrap;fontSize=13;fontColor=#ffffff;spacing=3.8;strokeOpacity=100;fillOpacity=100;rounded=1;absoluteArcSize=1;arcSize=9;fillColor=#000000;strokeWidth=NaN;lucidId=AALfWMDE7FE-;" parent="WIyWlLk6GJQsqaUBKTNV-1" vertex="1">
          <mxGeometry x="-4340" y="-114" width="120" height="90" as="geometry" />
        </mxCell>
        <mxCell id="Rz6tWYdozI2A_UNbcyXa-169" value="" style="html=1;jettySize=18;whiteSpace=wrap;fontSize=13.3;fontColor=#333333;fontStyle=1;strokeOpacity=100;strokeWidth=0.8;rounded=1;arcSize=12;edgeStyle=orthogonalEdgeStyle;startArrow=none;endArrow=block;endFill=1;exitX=0.984;exitY=0.5;exitPerimeter=0;entryX=-0.003;entryY=0.5;entryPerimeter=0;lucidId=OALfPus~iW1m;" parent="WIyWlLk6GJQsqaUBKTNV-1" source="Rz6tWYdozI2A_UNbcyXa-164" target="Rz6tWYdozI2A_UNbcyXa-171" edge="1">
          <mxGeometry width="100" height="100" relative="1" as="geometry">
            <Array as="points" />
          </mxGeometry>
        </mxCell>
        <mxCell id="Rz6tWYdozI2A_UNbcyXa-170" value="No" style="text;html=1;resizable=0;labelBackgroundColor=default;align=center;verticalAlign=middle;fontStyle=1;fontColor=#333333;fontSize=13.3;" parent="Rz6tWYdozI2A_UNbcyXa-169" vertex="1">
          <mxGeometry relative="1" as="geometry" />
        </mxCell>
        <mxCell id="Rz6tWYdozI2A_UNbcyXa-171" value="Mensaje: No hay campo para dicho vehículo" style="html=1;overflow=block;blockSpacing=1;whiteSpace=wrap;fontSize=13;fontColor=#ffffff;spacing=3.8;strokeOpacity=100;fillOpacity=100;rounded=1;absoluteArcSize=1;arcSize=9;fillColor=#000000;strokeWidth=NaN;lucidId=QALfGk3gvC-6;" parent="WIyWlLk6GJQsqaUBKTNV-1" vertex="1">
          <mxGeometry x="-4085" y="-300" width="120" height="101" as="geometry" />
        </mxCell>
        <mxCell id="Rz6tWYdozI2A_UNbcyXa-172" value="Volver al menú" style="html=1;overflow=block;blockSpacing=1;whiteSpace=wrap;fontSize=16.7;fontColor=#ffffff;spacing=3.8;strokeOpacity=100;fillOpacity=100;rounded=1;absoluteArcSize=1;arcSize=9;fillColor=#000000;strokeWidth=NaN;lucidId=IBLfe_UEBrmO;" parent="WIyWlLk6GJQsqaUBKTNV-1" vertex="1">
          <mxGeometry x="-4100" y="51" width="120" height="60" as="geometry" />
        </mxCell>
        <mxCell id="Rz6tWYdozI2A_UNbcyXa-173" value="" style="strokeColor=none;fillColor=none;whiteSpace=wrap;fontSize=13;fontColor=default;spacing=3.8;strokeOpacity=100;fillOpacity=100;rounded=1;absoluteArcSize=1;arcSize=9;strokeWidth=NaN;html=1;" parent="WIyWlLk6GJQsqaUBKTNV-1" vertex="1">
          <mxGeometry x="-4160" y="-129" width="180" height="120" as="geometry" />
        </mxCell>
        <mxCell id="Rz6tWYdozI2A_UNbcyXa-174" value="" style="shape=curlyBracket;rounded=1;flipH=1;whiteSpace=wrap;fontSize=13;fontColor=default;spacing=3.8;strokeOpacity=100;fillOpacity=100;fillColor=#000000;strokeWidth=NaN;" parent="Rz6tWYdozI2A_UNbcyXa-173" vertex="1">
          <mxGeometry width="15" height="120" as="geometry" />
        </mxCell>
        <mxCell id="Rz6tWYdozI2A_UNbcyXa-175" value="Imprimir el número de campo asignado:&#xa;El espacio Mx a sido asignado a &quot;Placa de la moto/Descripción de la bici&quot;.&#xa;" style="strokeColor=none;fillColor=none;whiteSpace=wrap;fontSize=13;fontColor=default;spacing=3.8;strokeOpacity=100;fillOpacity=100;rounded=1;absoluteArcSize=1;arcSize=9;strokeWidth=NaN;" parent="Rz6tWYdozI2A_UNbcyXa-173" vertex="1">
          <mxGeometry x="15" width="165" height="120" as="geometry" />
        </mxCell>
        <mxCell id="Rz6tWYdozI2A_UNbcyXa-176" value="" style="html=1;jettySize=18;whiteSpace=wrap;fontSize=13;strokeOpacity=100;strokeWidth=0.8;rounded=1;arcSize=12;edgeStyle=orthogonalEdgeStyle;startArrow=none;endArrow=block;endFill=1;exitX=0.5;exitY=1.004;exitPerimeter=0;entryX=0.5;entryY=0;entryPerimeter=0;lucidId=jELfuHGNzKlW;" parent="WIyWlLk6GJQsqaUBKTNV-1" source="Rz6tWYdozI2A_UNbcyXa-168" target="Rz6tWYdozI2A_UNbcyXa-177" edge="1">
          <mxGeometry width="100" height="100" relative="1" as="geometry">
            <Array as="points" />
          </mxGeometry>
        </mxCell>
        <mxCell id="Rz6tWYdozI2A_UNbcyXa-177" value="Tomar la hora del campo asignado" style="html=1;overflow=block;blockSpacing=1;whiteSpace=wrap;fontSize=16.7;fontColor=#ffffff;spacing=3.8;strokeOpacity=0;fillOpacity=100;rounded=1;absoluteArcSize=1;arcSize=9;fillColor=#000000;strokeWidth=2.3;lucidId=kELfM6NgU69E;" parent="WIyWlLk6GJQsqaUBKTNV-1" vertex="1">
          <mxGeometry x="-4340" y="36" width="120" height="90" as="geometry" />
        </mxCell>
        <mxCell id="Rz6tWYdozI2A_UNbcyXa-178" value="" style="html=1;jettySize=18;whiteSpace=wrap;fontSize=13;strokeOpacity=100;strokeWidth=0.8;rounded=1;arcSize=12;edgeStyle=orthogonalEdgeStyle;startArrow=none;endArrow=block;endFill=1;exitX=1;exitY=0.5;exitPerimeter=0;entryX=-0.003;entryY=0.5;entryPerimeter=0;lucidId=uELfCA5n.R0V;" parent="WIyWlLk6GJQsqaUBKTNV-1" source="Rz6tWYdozI2A_UNbcyXa-177" target="Rz6tWYdozI2A_UNbcyXa-172" edge="1">
          <mxGeometry width="100" height="100" relative="1" as="geometry">
            <Array as="points" />
          </mxGeometry>
        </mxCell>
        <mxCell id="Rz6tWYdozI2A_UNbcyXa-179" value="" style="html=1;jettySize=18;whiteSpace=wrap;fontSize=13;strokeOpacity=100;strokeWidth=0.8;rounded=1;arcSize=12;edgeStyle=orthogonalEdgeStyle;startArrow=none;endArrow=block;endFill=1;exitX=1.003;exitY=0.5;exitPerimeter=0;entryX=1.003;entryY=0.5;entryPerimeter=0;lucidId=AELfVXqd4eXn;" parent="WIyWlLk6GJQsqaUBKTNV-1" source="Rz6tWYdozI2A_UNbcyXa-171" target="Rz6tWYdozI2A_UNbcyXa-172" edge="1">
          <mxGeometry width="100" height="100" relative="1" as="geometry">
            <Array as="points" />
          </mxGeometry>
        </mxCell>
        <mxCell id="Rz6tWYdozI2A_UNbcyXa-180" value="Ingresar la consulta" style="html=1;overflow=block;blockSpacing=1;whiteSpace=wrap;rhombus;fontSize=13;fontColor=#ffffff;spacing=3.8;strokeOpacity=100;fillOpacity=100;rounded=1;absoluteArcSize=1;arcSize=9;fillColor=#000000;strokeWidth=NaN;lucidId=sNLfj0eWoKhR;" parent="WIyWlLk6GJQsqaUBKTNV-1" vertex="1">
          <mxGeometry x="-3582" y="-969" width="120" height="90" as="geometry" />
        </mxCell>
        <mxCell id="Rz6tWYdozI2A_UNbcyXa-181" value="" style="html=1;jettySize=18;whiteSpace=wrap;fontSize=13;strokeOpacity=100;strokeWidth=0.8;rounded=1;arcSize=12;edgeStyle=orthogonalEdgeStyle;startArrow=none;endArrow=block;endFill=1;exitX=0.5;exitY=1.004;exitPerimeter=0;entryX=0.5;entryY=0.012;entryPerimeter=0;lucidId=vNLffaROO0om;" parent="WIyWlLk6GJQsqaUBKTNV-1" source="Rz6tWYdozI2A_UNbcyXa-109" target="Rz6tWYdozI2A_UNbcyXa-180" edge="1">
          <mxGeometry width="100" height="100" relative="1" as="geometry">
            <Array as="points" />
          </mxGeometry>
        </mxCell>
        <mxCell id="Rz6tWYdozI2A_UNbcyXa-182" value="" style="html=1;jettySize=18;whiteSpace=wrap;fontSize=13.3;fontColor=#333333;fontStyle=1;strokeOpacity=100;strokeWidth=0.8;rounded=1;arcSize=12;edgeStyle=orthogonalEdgeStyle;startArrow=none;endArrow=block;endFill=1;exitX=0.016;exitY=0.5;exitPerimeter=0;entryX=0.5;entryY=-0.004;entryPerimeter=0;lucidId=0NLfmpW3CCRL;" parent="WIyWlLk6GJQsqaUBKTNV-1" source="Rz6tWYdozI2A_UNbcyXa-180" target="Rz6tWYdozI2A_UNbcyXa-186" edge="1">
          <mxGeometry width="100" height="100" relative="1" as="geometry">
            <Array as="points" />
          </mxGeometry>
        </mxCell>
        <mxCell id="Rz6tWYdozI2A_UNbcyXa-183" value="Placa" style="text;html=1;resizable=0;labelBackgroundColor=default;align=center;verticalAlign=middle;fontStyle=1;fontColor=#333333;fontSize=13.3;" parent="Rz6tWYdozI2A_UNbcyXa-182" vertex="1">
          <mxGeometry x="0.2803715020465849" relative="1" as="geometry" />
        </mxCell>
        <mxCell id="Rz6tWYdozI2A_UNbcyXa-184" value="" style="html=1;jettySize=18;whiteSpace=wrap;fontSize=13.3;fontColor=#333333;fontStyle=1;strokeOpacity=100;strokeWidth=0.8;rounded=1;arcSize=12;edgeStyle=orthogonalEdgeStyle;startArrow=none;endArrow=block;endFill=1;exitX=0.984;exitY=0.5;exitPerimeter=0;entryX=0.5;entryY=-0.004;entryPerimeter=0;lucidId=8NLf3N~wwUR5;" parent="WIyWlLk6GJQsqaUBKTNV-1" source="Rz6tWYdozI2A_UNbcyXa-180" target="Rz6tWYdozI2A_UNbcyXa-187" edge="1">
          <mxGeometry width="100" height="100" relative="1" as="geometry">
            <Array as="points" />
          </mxGeometry>
        </mxCell>
        <mxCell id="Rz6tWYdozI2A_UNbcyXa-185" value="Descripción" style="text;html=1;resizable=0;labelBackgroundColor=default;align=center;verticalAlign=middle;fontStyle=1;fontColor=#333333;fontSize=13.3;" parent="Rz6tWYdozI2A_UNbcyXa-184" vertex="1">
          <mxGeometry x="0.28786448328463154" relative="1" as="geometry" />
        </mxCell>
        <mxCell id="Rz6tWYdozI2A_UNbcyXa-186" value="Usar &quot;Placa:&quot;" style="html=1;overflow=block;blockSpacing=1;whiteSpace=wrap;fontSize=16.7;fontColor=#ffffff;spacing=9;strokeOpacity=100;fillOpacity=100;rounded=1;absoluteArcSize=1;arcSize=9;fillColor=#000000;strokeWidth=NaN;lucidId=lOLfogO.29nz;" parent="WIyWlLk6GJQsqaUBKTNV-1" vertex="1">
          <mxGeometry x="-3702" y="-789" width="120" height="90" as="geometry" />
        </mxCell>
        <mxCell id="Rz6tWYdozI2A_UNbcyXa-187" value="Usar &quot;Descripción:&quot;" style="html=1;overflow=block;blockSpacing=1;whiteSpace=wrap;fontSize=16.7;fontColor=#ffffff;spacing=9;strokeOpacity=100;fillOpacity=100;rounded=1;absoluteArcSize=1;arcSize=9;fillColor=#000000;strokeWidth=NaN;lucidId=SOLfW2XTsR2x;" parent="WIyWlLk6GJQsqaUBKTNV-1" vertex="1">
          <mxGeometry x="-3462" y="-789" width="120" height="90" as="geometry" />
        </mxCell>
        <mxCell id="Rz6tWYdozI2A_UNbcyXa-188" value="" style="html=1;jettySize=18;whiteSpace=wrap;fontSize=13;strokeOpacity=100;strokeWidth=0.8;rounded=1;arcSize=12;edgeStyle=orthogonalEdgeStyle;startArrow=none;endArrow=block;endFill=1;exitX=0.5;exitY=1.004;exitPerimeter=0;entryX=0.5;entryY=0.012;entryPerimeter=0;lucidId=yPLf5N8fk4qS;" parent="WIyWlLk6GJQsqaUBKTNV-1" source="Rz6tWYdozI2A_UNbcyXa-186" target="Rz6tWYdozI2A_UNbcyXa-190" edge="1">
          <mxGeometry width="100" height="100" relative="1" as="geometry">
            <Array as="points" />
          </mxGeometry>
        </mxCell>
        <mxCell id="Rz6tWYdozI2A_UNbcyXa-189" value="" style="html=1;jettySize=18;whiteSpace=wrap;fontSize=13;strokeOpacity=100;strokeWidth=0.8;rounded=1;arcSize=12;edgeStyle=orthogonalEdgeStyle;startArrow=none;endArrow=block;endFill=1;exitX=0.5;exitY=1.004;exitPerimeter=0;entryX=0.5;entryY=0.012;entryPerimeter=0;lucidId=CPLf-ajaiwRz;" parent="WIyWlLk6GJQsqaUBKTNV-1" source="Rz6tWYdozI2A_UNbcyXa-187" target="Rz6tWYdozI2A_UNbcyXa-190" edge="1">
          <mxGeometry width="100" height="100" relative="1" as="geometry">
            <Array as="points" />
          </mxGeometry>
        </mxCell>
        <mxCell id="Rz6tWYdozI2A_UNbcyXa-190" value="Se encontró" style="html=1;overflow=block;blockSpacing=1;whiteSpace=wrap;rhombus;fontSize=16.7;fontColor=#ffffff;spacing=3.8;strokeOpacity=100;fillOpacity=100;rounded=1;absoluteArcSize=1;arcSize=9;fillColor=#000000;strokeWidth=NaN;lucidId=gRLfuNpv-~3x;" parent="WIyWlLk6GJQsqaUBKTNV-1" vertex="1">
          <mxGeometry x="-3582" y="-639" width="120" height="90" as="geometry" />
        </mxCell>
        <mxCell id="Rz6tWYdozI2A_UNbcyXa-191" value="" style="html=1;jettySize=18;whiteSpace=wrap;fontSize=13.3;fontColor=#333333;fontStyle=1;strokeOpacity=100;strokeWidth=0.8;rounded=1;arcSize=12;edgeStyle=orthogonalEdgeStyle;startArrow=none;endArrow=block;endFill=1;exitX=0.016;exitY=0.5;exitPerimeter=0;entryX=0.5;entryY=0;entryPerimeter=0;lucidId=xRLfwpcrg8fu;" parent="WIyWlLk6GJQsqaUBKTNV-1" source="Rz6tWYdozI2A_UNbcyXa-190" target="Rz6tWYdozI2A_UNbcyXa-193" edge="1">
          <mxGeometry width="100" height="100" relative="1" as="geometry">
            <Array as="points" />
          </mxGeometry>
        </mxCell>
        <mxCell id="Rz6tWYdozI2A_UNbcyXa-192" value="Yes" style="text;html=1;resizable=0;labelBackgroundColor=default;align=center;verticalAlign=middle;fontStyle=1;fontColor=#333333;fontSize=13.3;" parent="Rz6tWYdozI2A_UNbcyXa-191" vertex="1">
          <mxGeometry x="0.4109897265706839" relative="1" as="geometry" />
        </mxCell>
        <mxCell id="Rz6tWYdozI2A_UNbcyXa-193" value="Retornar el/los resultados" style="html=1;overflow=block;blockSpacing=1;whiteSpace=wrap;fontSize=16.7;fontColor=#ffffff;spacing=3.8;strokeOpacity=0;fillOpacity=100;rounded=1;absoluteArcSize=1;arcSize=9;fillColor=#000000;strokeWidth=2.3;lucidId=yRLfmf9EL1vP;" parent="WIyWlLk6GJQsqaUBKTNV-1" vertex="1">
          <mxGeometry x="-3702" y="-504" width="120" height="90" as="geometry" />
        </mxCell>
        <mxCell id="Rz6tWYdozI2A_UNbcyXa-194" value="" style="html=1;jettySize=18;whiteSpace=wrap;fontSize=13.3;fontColor=#333333;fontStyle=1;strokeOpacity=100;strokeWidth=0.8;rounded=1;arcSize=12;edgeStyle=orthogonalEdgeStyle;startArrow=none;endArrow=block;endFill=1;exitX=0.984;exitY=0.5;exitPerimeter=0;entryX=0.5;entryY=0;entryPerimeter=0;lucidId=BRLf7NTNY6xq;" parent="WIyWlLk6GJQsqaUBKTNV-1" source="Rz6tWYdozI2A_UNbcyXa-190" target="Rz6tWYdozI2A_UNbcyXa-196" edge="1">
          <mxGeometry width="100" height="100" relative="1" as="geometry">
            <Array as="points" />
          </mxGeometry>
        </mxCell>
        <mxCell id="Rz6tWYdozI2A_UNbcyXa-195" value="No" style="text;html=1;resizable=0;labelBackgroundColor=default;align=center;verticalAlign=middle;fontStyle=1;fontColor=#333333;fontSize=13.3;" parent="Rz6tWYdozI2A_UNbcyXa-194" vertex="1">
          <mxGeometry x="0.4109897904473754" relative="1" as="geometry" />
        </mxCell>
        <mxCell id="Rz6tWYdozI2A_UNbcyXa-196" value="Mensaje:&#xa;&quot;No se encontró un vehículo con esa placa/descripción&quot;" style="html=1;overflow=block;blockSpacing=1;whiteSpace=wrap;fontSize=13;fontColor=#ffffff;spacing=3.8;strokeOpacity=0;fillOpacity=100;rounded=1;absoluteArcSize=1;arcSize=9;fillColor=#000000;strokeWidth=2.3;lucidId=CRLfWOPCmz-D;" parent="WIyWlLk6GJQsqaUBKTNV-1" vertex="1">
          <mxGeometry x="-3462" y="-504" width="120" height="90" as="geometry" />
        </mxCell>
        <mxCell id="Rz6tWYdozI2A_UNbcyXa-197" value="Volver al menú" style="html=1;overflow=block;blockSpacing=1;whiteSpace=wrap;fontSize=16.7;fontColor=#ffffff;spacing=3.8;strokeOpacity=100;fillOpacity=100;rounded=1;absoluteArcSize=1;arcSize=9;fillColor=#000000;strokeWidth=NaN;lucidId=aTLf1ANe60Xo;" parent="WIyWlLk6GJQsqaUBKTNV-1" vertex="1">
          <mxGeometry x="-3462" y="-324" width="120" height="60" as="geometry" />
        </mxCell>
        <mxCell id="Rz6tWYdozI2A_UNbcyXa-198" value="" style="html=1;jettySize=18;whiteSpace=wrap;fontSize=13;strokeOpacity=100;strokeWidth=0.8;rounded=1;arcSize=12;edgeStyle=orthogonalEdgeStyle;startArrow=none;endArrow=block;endFill=1;exitX=0.5;exitY=1;exitPerimeter=0;entryX=0.5;entryY=-0.006;entryPerimeter=0;lucidId=kTLfNMmWY-QU;" parent="WIyWlLk6GJQsqaUBKTNV-1" source="Rz6tWYdozI2A_UNbcyXa-196" target="Rz6tWYdozI2A_UNbcyXa-197" edge="1">
          <mxGeometry width="100" height="100" relative="1" as="geometry">
            <Array as="points" />
          </mxGeometry>
        </mxCell>
        <mxCell id="Rz6tWYdozI2A_UNbcyXa-199" value="" style="html=1;jettySize=18;whiteSpace=wrap;fontSize=13;strokeOpacity=100;strokeWidth=0.8;rounded=1;arcSize=12;edgeStyle=orthogonalEdgeStyle;startArrow=none;endArrow=block;endFill=1;exitX=0.5;exitY=1;exitPerimeter=0;entryX=0.5;entryY=0;entryPerimeter=0;lucidId=OTLfOctfXf_X;" parent="WIyWlLk6GJQsqaUBKTNV-1" source="Rz6tWYdozI2A_UNbcyXa-193" target="Rz6tWYdozI2A_UNbcyXa-200" edge="1">
          <mxGeometry width="100" height="100" relative="1" as="geometry">
            <Array as="points" />
          </mxGeometry>
        </mxCell>
        <mxCell id="Rz6tWYdozI2A_UNbcyXa-200" value="&lt;div style=&quot;display: flex; justify-content: center; text-align: center; align-items: baseline; font-size: 0; line-height: 1.25;margin-top: -2px;&quot;&gt;&lt;span&gt;&lt;span style=&quot;font-size:13px;color:#ffffff;&quot;&gt;Mostrar:&lt;/span&gt;&lt;span style=&quot;font-size:13px;color:#ffffff;&quot;&gt;Placa o descripción&#xa;Entrada (supongo hora)&#xa;Cantidad de horas al momento&#xa;Monto hasta el momento&lt;/span&gt;&lt;/span&gt;&lt;/div&gt;" style="html=1;overflow=block;blockSpacing=1;whiteSpace=wrap;fontSize=13;spacing=3.8;strokeOpacity=0;fillOpacity=100;rounded=1;absoluteArcSize=1;arcSize=9;fillColor=#000000;strokeWidth=2.3;lucidId=PTLf9Vd.CEqN;" parent="WIyWlLk6GJQsqaUBKTNV-1" vertex="1">
          <mxGeometry x="-3709" y="-324" width="135" height="60" as="geometry" />
        </mxCell>
        <mxCell id="Rz6tWYdozI2A_UNbcyXa-201" value="" style="strokeColor=none;fillColor=none;whiteSpace=wrap;fontSize=13;fontColor=#ffffff;align=center;spacing=3.8;strokeOpacity=100;fillOpacity=100;rounded=1;absoluteArcSize=1;arcSize=9;strokeWidth=NaN;html=1;" parent="WIyWlLk6GJQsqaUBKTNV-1" vertex="1">
          <mxGeometry x="-3897" y="-354" width="150" height="120" as="geometry" />
        </mxCell>
        <mxCell id="Rz6tWYdozI2A_UNbcyXa-202" value="" style="shape=curlyBracket;rounded=1;whiteSpace=wrap;fontSize=13;fontColor=#ffffff;align=center;spacing=3.8;strokeOpacity=100;fillOpacity=100;fillColor=#000000;strokeWidth=NaN;" parent="Rz6tWYdozI2A_UNbcyXa-201" vertex="1">
          <mxGeometry x="135" width="15" height="120" as="geometry" />
        </mxCell>
        <mxCell id="Rz6tWYdozI2A_UNbcyXa-203" value="Si se encuentran más de uno(Bicis) dejar espacios en medio para notar la diferencia de que es otra bici" style="strokeColor=none;fillColor=none;whiteSpace=wrap;fontSize=13;fontColor=#ffffff;align=center;spacing=3.8;strokeOpacity=100;fillOpacity=100;rounded=1;absoluteArcSize=1;arcSize=9;strokeWidth=NaN;" parent="Rz6tWYdozI2A_UNbcyXa-201" vertex="1">
          <mxGeometry width="135" height="120" as="geometry" />
        </mxCell>
        <mxCell id="Rz6tWYdozI2A_UNbcyXa-204" value="" style="html=1;jettySize=18;whiteSpace=wrap;fontSize=13;strokeOpacity=100;strokeWidth=0.8;rounded=1;arcSize=12;edgeStyle=orthogonalEdgeStyle;startArrow=none;endArrow=block;endFill=1;exitX=0;exitY=0.5;exitPerimeter=0;entryX=0.942;entryY=0.5;entryPerimeter=0;lucidId=WULfqs6KvfBf;" parent="WIyWlLk6GJQsqaUBKTNV-1" source="Rz6tWYdozI2A_UNbcyXa-200" target="Rz6tWYdozI2A_UNbcyXa-201" edge="1">
          <mxGeometry width="100" height="100" relative="1" as="geometry">
            <Array as="points" />
          </mxGeometry>
        </mxCell>
        <mxCell id="Rz6tWYdozI2A_UNbcyXa-205" value="" style="html=1;jettySize=18;whiteSpace=wrap;fontSize=13;strokeOpacity=100;strokeWidth=0.8;rounded=1;arcSize=12;edgeStyle=orthogonalEdgeStyle;startArrow=none;endArrow=block;endFill=1;exitX=1.003;exitY=0.5;exitPerimeter=0;entryX=0.048;entryY=0.5;entryPerimeter=0;lucidId=cVLf4kzllGO0;" parent="WIyWlLk6GJQsqaUBKTNV-1" source="Rz6tWYdozI2A_UNbcyXa-168" target="Rz6tWYdozI2A_UNbcyXa-173" edge="1">
          <mxGeometry width="100" height="100" relative="1" as="geometry">
            <Array as="points" />
          </mxGeometry>
        </mxCell>
        <mxCell id="Rz6tWYdozI2A_UNbcyXa-206" value="" style="html=1;jettySize=18;whiteSpace=wrap;fontSize=13;strokeOpacity=100;strokeWidth=0.8;rounded=1;arcSize=12;edgeStyle=orthogonalEdgeStyle;startArrow=none;endArrow=block;endFill=1;exitX=1;exitY=0.5;exitPerimeter=0;entryX=-0.003;entryY=0.5;entryPerimeter=0;lucidId=YXLfV-jQsYzz;" parent="WIyWlLk6GJQsqaUBKTNV-1" source="Rz6tWYdozI2A_UNbcyXa-200" target="Rz6tWYdozI2A_UNbcyXa-197" edge="1">
          <mxGeometry width="100" height="100" relative="1" as="geometry">
            <Array as="points" />
          </mxGeometry>
        </mxCell>
        <mxCell id="Rz6tWYdozI2A_UNbcyXa-208" value="&lt;div style=&quot;display: flex; justify-content: center; text-align: center; align-items: baseline; font-size: 0; line-height: 1.25;margin-top: -2px;&quot;&gt;&lt;span&gt;&lt;span style=&quot;font-size:13.1px;color:#cf8e6d;&quot;&gt;private &lt;/span&gt;&lt;span style=&quot;font-size:13.1px;color:#bcbec4;&quot;&gt;String &lt;/span&gt;&lt;span style=&quot;font-size:13.1px;color:#c77dbb;&quot;&gt;type&lt;/span&gt;&lt;span style=&quot;font-size:13.1px;color:#bcbec4;&quot;&gt;;&#xa;&lt;/span&gt;&lt;span style=&quot;font-size:13.1px;color:#cf8e6d;&quot;&gt;private &lt;/span&gt;&lt;span style=&quot;font-size:13.1px;color:#bcbec4;&quot;&gt;String &lt;/span&gt;&lt;span style=&quot;font-size:13.1px;color:#c77dbb;&quot;&gt;plate&lt;/span&gt;&lt;span style=&quot;font-size:13.1px;color:#bcbec4;&quot;&gt;;&#xa;&lt;/span&gt;&lt;span style=&quot;font-size:13.1px;color:#cf8e6d;&quot;&gt;private &lt;/span&gt;&lt;span style=&quot;font-size:13.1px;color:#bcbec4;&quot;&gt;String &lt;/span&gt;&lt;span style=&quot;font-size:13.1px;color:#c77dbb;&quot;&gt;description&lt;/span&gt;&lt;span style=&quot;font-size:13.1px;color:#bcbec4;&quot;&gt;;&#xa;&lt;/span&gt;&lt;span style=&quot;font-size:13.1px;color:#cf8e6d;&quot;&gt;private int &lt;/span&gt;&lt;span style=&quot;font-size:13.1px;color:#c77dbb;&quot;&gt;spotsNeeded&lt;/span&gt;&lt;span style=&quot;font-size:13.1px;color:#bcbec4;&quot;&gt;;&#xa;&lt;/span&gt;&lt;span style=&quot;font-size:13.1px;color:#cf8e6d;&quot;&gt;private int &lt;/span&gt;&lt;span style=&quot;font-size:13.1px;color:#c77dbb;&quot;&gt;amountCharged&lt;/span&gt;&lt;span style=&quot;font-size:13.1px;color:#bcbec4;&quot;&gt;;&lt;/span&gt;&lt;/span&gt;&lt;/div&gt;" style="html=1;overflow=block;blockSpacing=1;whiteSpace=wrap;fontSize=13;spacing=3.8;strokeOpacity=100;fillOpacity=100;rounded=1;absoluteArcSize=1;arcSize=9;fillColor=#250808;strokeWidth=NaN;lucidId=Omug-UtfrzzJ;" parent="WIyWlLk6GJQsqaUBKTNV-1" vertex="1">
          <mxGeometry x="2140" y="-1749" width="240" height="90" as="geometry" />
        </mxCell>
        <mxCell id="Rz6tWYdozI2A_UNbcyXa-209" value="&lt;div style=&quot;display: flex; justify-content: center; text-align: center; align-items: baseline; font-size: 0; line-height: 1.25;margin-top: -2px;&quot;&gt;&lt;span&gt;&lt;span style=&quot;font-size:13.1px;color:#cf8e6d;&quot;&gt;private &lt;/span&gt;&lt;span style=&quot;font-size:13.1px;color:#bcbec4;&quot;&gt;Vehicles &lt;/span&gt;&lt;span style=&quot;font-size:13.1px;color:#c77dbb;&quot;&gt;vehicle&lt;/span&gt;&lt;span style=&quot;font-size:13.1px;color:#bcbec4;&quot;&gt;;&#xa;&lt;/span&gt;&lt;span style=&quot;font-size:13.1px;color:#cf8e6d;&quot;&gt;private &lt;/span&gt;&lt;span style=&quot;font-size:13.1px;color:#bcbec4;&quot;&gt;Date &lt;/span&gt;&lt;span style=&quot;font-size:13.1px;color:#c77dbb;&quot;&gt;entryTime&lt;/span&gt;&lt;span style=&quot;font-size:13.1px;color:#bcbec4;&quot;&gt;;&#xa;&lt;/span&gt;&lt;span style=&quot;font-size:13.1px;color:#cf8e6d;&quot;&gt;private &lt;/span&gt;&lt;span style=&quot;font-size:13.1px;color:#bcbec4;&quot;&gt;Date &lt;/span&gt;&lt;span style=&quot;font-size:13.1px;color:#c77dbb;&quot;&gt;exitTime&lt;/span&gt;&lt;span style=&quot;font-size:13.1px;color:#bcbec4;&quot;&gt;;&lt;/span&gt;&lt;/span&gt;&lt;/div&gt;" style="html=1;overflow=block;blockSpacing=1;whiteSpace=wrap;fontSize=13;spacing=3.8;strokeOpacity=100;fillOpacity=100;rounded=1;absoluteArcSize=1;arcSize=9;fillColor=#250808;strokeWidth=NaN;lucidId=UnugX8VtYhOF;" parent="WIyWlLk6GJQsqaUBKTNV-1" vertex="1">
          <mxGeometry x="2140" y="-1524" width="240" height="90" as="geometry" />
        </mxCell>
        <mxCell id="Rz6tWYdozI2A_UNbcyXa-210" value="&lt;div style=&quot;display: flex; justify-content: center; text-align: center; align-items: baseline; font-size: 0; line-height: 1.25;margin-top: -2px;&quot;&gt;&lt;span&gt;&lt;span style=&quot;font-size:13.1px;color:#cf8e6d;&quot;&gt;private &lt;/span&gt;&lt;span style=&quot;font-size:13.1px;color:#bcbec4;&quot;&gt;ParkingLot &lt;/span&gt;&lt;span style=&quot;font-size:13.1px;color:#c77dbb;&quot;&gt;parkingLot&lt;/span&gt;&lt;span style=&quot;font-size:13.1px;color:#bcbec4;&quot;&gt;;&lt;/span&gt;&lt;/span&gt;&lt;/div&gt;" style="html=1;overflow=block;blockSpacing=1;whiteSpace=wrap;fontSize=13;spacing=3.8;strokeOpacity=100;fillOpacity=100;rounded=1;absoluteArcSize=1;arcSize=9;fillColor=#250808;strokeWidth=NaN;lucidId=-ougC2gqGX2Q;" parent="WIyWlLk6GJQsqaUBKTNV-1" vertex="1">
          <mxGeometry x="2140" y="-1298" width="240" height="90" as="geometry" />
        </mxCell>
        <mxCell id="A187bmQ27qUvv_O53zIO-0" value="" style="strokeColor=none;fillColor=none;whiteSpace=wrap;fontSize=16.7;fontColor=default;align=center;spacing=3.8;strokeOpacity=100;fillOpacity=100;rounded=1;absoluteArcSize=1;arcSize=9;strokeWidth=NaN;html=1;" vertex="1" parent="WIyWlLk6GJQsqaUBKTNV-1">
          <mxGeometry x="-5180" y="160" width="285" height="120" as="geometry" />
        </mxCell>
        <mxCell id="A187bmQ27qUvv_O53zIO-1" value="" style="shape=curlyBracket;rounded=1;whiteSpace=wrap;fontSize=16.7;fontColor=default;align=center;spacing=3.8;strokeOpacity=100;fillOpacity=100;fillColor=#000000;strokeWidth=NaN;" vertex="1" parent="A187bmQ27qUvv_O53zIO-0">
          <mxGeometry x="240" y="-469" width="45" height="120" as="geometry" />
        </mxCell>
        <mxCell id="A187bmQ27qUvv_O53zIO-2" value=" En este caso deberá de salir un mensaje en consola:&#xa;&quot;El vehículo con esa placa se encuentra en el parqueo&quot;" style="strokeColor=none;fillColor=none;whiteSpace=wrap;fontSize=16.7;fontColor=default;align=center;spacing=3.8;strokeOpacity=100;fillOpacity=100;rounded=1;absoluteArcSize=1;arcSize=9;strokeWidth=NaN;" vertex="1" parent="WIyWlLk6GJQsqaUBKTNV-1">
          <mxGeometry x="-5202" y="-309" width="240" height="120" as="geometry" />
        </mxCell>
        <mxCell id="A187bmQ27qUvv_O53zIO-4" style="edgeStyle=orthogonalEdgeStyle;rounded=0;orthogonalLoop=1;jettySize=auto;html=1;exitX=0.1;exitY=0.5;exitDx=0;exitDy=0;exitPerimeter=0;entryX=1;entryY=0.5;entryDx=0;entryDy=0;" edge="1" parent="WIyWlLk6GJQsqaUBKTNV-1" source="A187bmQ27qUvv_O53zIO-1" target="A187bmQ27qUvv_O53zIO-2">
          <mxGeometry relative="1" as="geometry" />
        </mxCell>
        <mxCell id="A187bmQ27qUvv_O53zIO-5" style="edgeStyle=orthogonalEdgeStyle;rounded=0;orthogonalLoop=1;jettySize=auto;html=1;exitX=0;exitY=0.5;exitDx=0;exitDy=0;entryX=0.9;entryY=0.5;entryDx=0;entryDy=0;entryPerimeter=0;" edge="1" parent="WIyWlLk6GJQsqaUBKTNV-1" source="Rz6tWYdozI2A_UNbcyXa-157" target="A187bmQ27qUvv_O53zIO-1">
          <mxGeometry relative="1" as="geometry" />
        </mxCell>
        <mxCell id="A187bmQ27qUvv_O53zIO-6" value="" style="shape=curlyBracket;rounded=1;whiteSpace=wrap;fontSize=16.7;fontColor=default;align=center;spacing=3.8;strokeOpacity=100;fillOpacity=100;fillColor=#000000;strokeWidth=NaN;" vertex="1" parent="WIyWlLk6GJQsqaUBKTNV-1">
          <mxGeometry x="-4940" y="-309" width="45" height="120" as="geometry" />
        </mxCell>
        <mxCell id="A187bmQ27qUvv_O53zIO-7" value="&lt;font style=&quot;font-size: 40px;&quot;&gt;Hubiera sido lindo terminar el diagramita este, solo que di que cansado honestamente.&lt;/font&gt;" style="rounded=1;whiteSpace=wrap;html=1;absoluteArcSize=1;arcSize=14;strokeWidth=2;" vertex="1" parent="WIyWlLk6GJQsqaUBKTNV-1">
          <mxGeometry x="-2877" y="-593" width="810" height="180" as="geometry" />
        </mxCell>
      </root>
    </mxGraphModel>
  </diagram>
</mxfile>
